<?xml version="1.0"?>

<svg xmlns="http://www.w3.org/2000/svg" width="180.031" height="192.284">

<path d="M162.029,89.659c-5.197-11.431-16.867-13.098-24.172-17.862c-3.496-2.28-4.911-6.857-5.468-10.683 c-3.441,0.357-9.172,0.409-11.909-6.55c-2.152-5.472-1.26-14.54-8.464-22.223c-6.549-6.986-14.607-9.288-22-8.77 c9.061,6.059,5.487,15.191-1.092,15.191c-9.158,0-11.719-11.029-25.125-11.029c-3.066,0-5.768,0.958-7.454,2.072 c7.508,0.948,9.304,7.104,11.65,12.675c1.866,4.429,5.2,7.008,10.083,8.358c-0.882,0.506-2.988,1.13-5.714,1.13 c-5.922,0-10.045-3.116-14.286-7.483c-3.73-3.845-7.892-7.488-14.87-7.488c-3.433,0-6.062,1.087-6.973,1.701 c3.833,0.603,9.49,2.886,9.49,6.938c0,3.465-3.832,4.792-6.972,1.476c-3.497-3.691-8.404-6.485-14.021-6.485 c-2.775,0-5.55,0.885-6.729,2.033c6.656,0.768,10.6,5.042,14.721,14.573c2.326,5.38,5.639,10.466,13.979,10.56 c3.796,0.046,9.186-1.759,12.35,1.278c2.995,2.874,1.989,6.645,3.358,9.699c1.725,3.842,5.297,5.822,12.282,6.186 c-5.796,4.849-19.649,1.941-24.367-3.016c0.622,12.405,10.407,23.533,29.831,18.3c3.376-0.908,5.784-0.395,7.083,3.021 c1.784,4.689,6.008,5.467,10,4.973c9.129-1.132,14.549,0.706,19.803,6.985c1.148-10.388-6.278-16.491-10.941-19.407 c-4.442-2.779-4.877-5.668-4.932-7.907c3.216,3.678,7.406,5.237,11.765,5.851c7.537,1.06,12.936,3.163,15.793,7.203 c0.834-11.418-11.154-13.999-12.623-18.802c3.771,2.461,6.552,3.355,10.48,3.056c5.238-0.396,11.609-4.511,16.31,3.542 C148.893,84.856,156.752,86.246,162.029,89.659 M96.767,74.262H83.265V60.759h13.502V74.262z M83.265,13.502h13.502V0H83.265 V13.502z M96.767,121.521H83.265v13.501h13.502V121.521z"
 id="path2922" />
<path d="M13.183,192.268c2.511,0,4.152-1.439,4.152-4.431v-6.584h-2.229v6.692c0,1.504-0.73,2.248-1.892,2.248 c-1.163,0-1.891-0.76-1.891-2.294v-6.646H9.076v6.63C9.076,190.813,10.687,192.268,13.183,192.268 M18.745,192.099h2.198v-6.555 l4.294,6.555h1.92v-10.846h-2.198v6.319l-4.155-6.319h-2.059V192.099z M28.803,192.099h2.245v-10.846h-2.245V192.099z  M35.393,192.159h2.076l3.656-10.906h-2.369l-2.293,7.468l-2.293-7.468h-2.433L35.393,192.159z M41.697,192.099h7.049v-2.029 h-4.82v-2.418h4.185v-2.029h-4.185v-2.344h4.757v-2.025h-6.986V192.099z M49.992,192.099h2.245v-3.565h1.41l2.001,3.565h2.57 l-2.307-4.031c1.192-0.525,2.012-1.563,2.012-3.205v-0.062c0-1.071-0.324-1.924-0.912-2.511 c-0.682-0.682-1.689-1.037-2.945-1.037h-4.074V192.099z M52.237,186.551v-3.272h1.612c1.147,0,1.814,0.545,1.814,1.63v0.016 c0,0.977-0.62,1.627-1.768,1.627H52.237z M62.373,192.236c2.108,0,3.64-1.238,3.64-3.252v-0.032c0-1.689-1.021-2.493-2.91-3.24 c-1.691-0.695-2.063-0.991-2.063-1.61v-0.014c0-0.56,0.481-0.948,1.257-0.948c0.837,0,1.626,0.451,2.31,1.008l1.253-1.703 c-0.99-0.898-2.229-1.332-3.501-1.332c-2.091,0-3.547,1.286-3.547,3.175v0.031c0,1.86,1.191,2.587,3.113,3.334 c1.551,0.587,1.861,0.929,1.861,1.471v0.017c0,0.635-0.528,1.068-1.395,1.068c-1.086,0-1.969-0.59-2.697-1.224l-1.332,1.656 C59.555,191.757,60.993,192.236,62.373,192.236 M66.855,192.099h2.243v-10.846h-2.243V192.099z M72.6,192.099h2.229v-8.771 h2.729v-2.074h-7.684v2.074H72.6V192.099z M81.264,192.099h2.244v-4.31l3.533-6.536h-2.479l-2.154,4.261l-2.136-4.261h-2.542 l3.533,6.567V192.099z M94.726,192.284c2.867,0,4.91-2.292,4.91-5.532v-0.186c0-3.239-2.013-5.501-4.896-5.501 c-2.869,0-4.911,2.275-4.911,5.532v0.186C89.83,190.021,91.843,192.284,94.726,192.284 M94.741,190.208 c-1.503,0-2.604-1.349-2.604-3.487v-0.108c0-2.139,1.068-3.473,2.59-3.473c1.503,0,2.588,1.351,2.588,3.49v0.105 C97.314,188.876,96.244,190.208,94.741,190.208 M100.543,192.099h2.244v-4.296h4.169v-2.057h-4.169v-2.435h4.742v-2.059h-6.986 V192.099z M111.898,192.099h2.246v-4.418h3.565v4.418h2.246v-10.846h-2.246v4.354h-3.565v-4.354h-2.246V192.099z  M121.561,192.099h7.05v-2.029h-4.82v-2.418h4.183v-2.029h-4.183v-2.344h4.758v-2.025h-6.987V192.099z M129.855,192.099h6.632 v-2.061h-4.386v-8.785h-2.246V192.099z M140.847,192.236c2.108,0,3.638-1.238,3.638-3.252v-0.032c0-1.689-1.02-2.493-2.911-3.24 c-1.689-0.695-2.062-0.991-2.062-1.61v-0.014c0-0.56,0.48-0.948,1.258-0.948c0.836,0,1.627,0.451,2.309,1.008l1.253-1.703 c-0.99-0.898-2.231-1.332-3.502-1.332c-2.091,0-3.547,1.286-3.547,3.175v0.031c0,1.86,1.192,2.587,3.113,3.334 c1.551,0.587,1.862,0.929,1.862,1.471v0.017c0,0.635-0.528,1.068-1.397,1.068c-1.085,0-1.968-0.59-2.695-1.224l-1.331,1.656 C138.026,191.757,139.466,192.236,140.847,192.236 M145.583,192.099h2.246v-10.846h-2.246V192.099z M149.45,192.099h2.199 v-6.555l4.294,6.555h1.92v-10.846h-2.199v6.319l-4.154-6.319h-2.06V192.099z M159.471,192.099h2.243v-3.193l1.008-1.27 l2.713,4.463h2.633l-3.797-6.245l3.642-4.601h-2.648l-3.55,4.678v-4.678h-2.243V192.099z M168.71,192.099h2.246v-10.846h-2.246 V192.099z"
 id="path2924" />
<path d="M0,175.826h2.245v-4.416h3.566v4.416h2.246V164.98H5.811v4.355H2.245v-4.355H0V175.826z  M9.663,175.826h7.049v-2.028h-4.819v-2.417h4.184v-2.029h-4.184v-2.342h4.757v-2.029H9.663V175.826z M17.958,175.826h6.63 v-2.059h-4.385v-8.787h-2.245V175.826z M28.947,175.965c2.108,0,3.641-1.237,3.641-3.251v-0.031c0-1.69-1.021-2.494-2.91-3.24 c-1.691-0.697-2.064-0.991-2.064-1.611v-0.015c0-0.56,0.481-0.947,1.257-0.947c0.837,0,1.627,0.451,2.309,1.01l1.254-1.705 c-0.99-0.898-2.229-1.33-3.501-1.33c-2.091,0-3.547,1.283-3.547,3.172v0.032c0,1.86,1.192,2.589,3.113,3.333 c1.55,0.589,1.86,0.929,1.86,1.473v0.014c0,0.637-0.527,1.069-1.395,1.069c-1.086,0-1.969-0.587-2.696-1.223l-1.332,1.658 C26.127,175.487,27.568,175.965,28.947,175.965 M33.685,175.826h2.245V164.98h-2.245V175.826z M37.552,175.826h2.198v-6.553 l4.294,6.553h1.92V164.98h-2.198v6.322l-4.154-6.322h-2.06V175.826z M52.146,175.982c1.613,0,2.867-0.604,3.857-1.349v-5.02 h-4.104v1.951h1.969v1.923c-0.403,0.296-0.978,0.448-1.613,0.448c-1.596,0-2.821-1.254-2.821-3.484v-0.127 c0-1.999,1.177-3.409,2.728-3.409c1.039,0,1.676,0.404,2.247,0.932l1.332-1.752c-0.991-0.837-2.029-1.269-3.547-1.269 c-2.945,0-5.067,2.306-5.067,5.516v0.139C47.127,173.876,49.232,175.982,52.146,175.982 M57.394,175.826h2.246v-4.292h4.167 v-2.061H59.64v-2.433h4.742v-2.061h-6.988V175.826z M69.607,176.014c2.867,0,4.912-2.294,4.912-5.532v-0.186 c0-3.24-2.013-5.5-4.896-5.5c-2.867,0-4.911,2.276-4.911,5.529v0.187C64.711,173.751,66.725,176.014,69.607,176.014  M69.623,173.937c-1.503,0-2.604-1.348-2.604-3.484v-0.109c0-2.14,1.071-3.474,2.589-3.474c1.505,0,2.589,1.349,2.589,3.489 v0.106C72.196,172.605,71.125,173.937,69.623,173.937 M75.548,175.826h2.246v-3.563h1.41l2.001,3.563h2.569l-2.307-4.027 c1.193-0.527,2.014-1.564,2.014-3.207v-0.063c0-1.069-0.325-1.923-0.916-2.511c-0.679-0.682-1.687-1.038-2.941-1.038h-4.076 V175.826z M77.794,170.28v-3.271h1.611c1.148,0,1.814,0.541,1.814,1.626v0.018c0,0.977-0.619,1.627-1.767,1.627H77.794z  M87.807,175.965c2.108,0,3.641-1.237,3.641-3.251v-0.031c0-1.69-1.021-2.494-2.912-3.24c-1.69-0.697-2.063-0.991-2.063-1.611 v-0.015c0-0.56,0.481-0.947,1.258-0.947c0.837,0,1.628,0.451,2.309,1.01l1.255-1.705c-0.992-0.898-2.23-1.33-3.503-1.33 c-2.091,0-3.547,1.283-3.547,3.172v0.032c0,1.86,1.192,2.589,3.113,3.333c1.55,0.589,1.862,0.929,1.862,1.473v0.014 c0,0.637-0.528,1.069-1.396,1.069c-1.086,0-1.969-0.587-2.696-1.223l-1.332,1.658C84.988,175.487,86.427,175.965,87.807,175.965  M99.844,175.996c2.511,0,4.15-1.439,4.15-4.428v-6.588h-2.229v6.696c0,1.502-0.729,2.246-1.892,2.246 c-1.162,0-1.892-0.76-1.892-2.294v-6.648h-2.245v6.634C95.738,174.542,97.349,175.996,99.844,175.996 M105.407,175.826h2.199 v-6.553l4.293,6.553h1.921V164.98h-2.2v6.322l-4.154-6.322h-2.059V175.826z M115.463,175.826h2.246V164.98h-2.246V175.826z  M122.054,175.889h2.076l3.655-10.908h-2.368l-2.295,7.469l-2.292-7.469h-2.433L122.054,175.889z M128.266,175.826h7.049v-2.028 h-4.819v-2.417h4.184v-2.029h-4.184v-2.342h4.756v-2.029h-6.985V175.826z M136.56,175.826h2.246v-3.563h1.411l1.999,3.563h2.57 l-2.306-4.027c1.192-0.527,2.013-1.564,2.013-3.207v-0.063c0-1.069-0.326-1.923-0.914-2.511 c-0.682-0.682-1.688-1.038-2.944-1.038h-4.075V175.826z M138.806,170.28v-3.271h1.612c1.147,0,1.813,0.541,1.813,1.626v0.018 c0,0.977-0.619,1.627-1.767,1.627H138.806z M148.825,175.965c2.107,0,3.641-1.237,3.641-3.251v-0.031 c0-1.69-1.022-2.494-2.91-3.24c-1.69-0.697-2.063-0.991-2.063-1.611v-0.015c0-0.56,0.48-0.947,1.256-0.947 c0.838,0,1.628,0.451,2.31,1.01l1.255-1.705c-0.991-0.898-2.229-1.33-3.502-1.33c-2.091,0-3.547,1.283-3.547,3.172v0.032 c0,1.86,1.19,2.589,3.113,3.333c1.551,0.589,1.86,0.929,1.86,1.473v0.014c0,0.637-0.526,1.069-1.396,1.069 c-1.085,0-1.969-0.587-2.695-1.223l-1.332,1.658C146.006,175.487,147.445,175.965,148.825,175.965 M153.306,175.826h2.246 V164.98h-2.246V175.826z M159.075,175.826h2.229v-8.771h2.727v-2.075h-7.685v2.075h2.729V175.826z M164.781,175.826h7.05v-2.028 h-4.82v-2.417h4.185v-2.029h-4.185v-2.342h4.758v-2.029h-6.987V175.826z M175.076,175.826h2.229v-8.771h2.727v-2.075h-7.685 v2.075h2.729V175.826z"
 id="path2926" />
<path d="M19.479,159.556h2.244v-4.416h3.566v4.416h2.245v-10.847h-2.245v4.357h-3.566v-4.357h-2.244V159.556z  M29.141,159.556h7.049v-2.028h-4.818v-2.419h4.183v-2.028h-4.183v-2.343h4.757v-2.028h-6.988V159.556z M37.437,159.556h6.63 v-2.059h-4.386v-8.788h-2.244V159.556z M48.393,159.695c2.108,0,3.641-1.238,3.641-3.253v-0.031c0-1.689-1.022-2.493-2.912-3.24 c-1.69-0.695-2.062-0.991-2.062-1.61v-0.017c0-0.558,0.479-0.945,1.255-0.945c0.837,0,1.628,0.45,2.31,1.008l1.253-1.704 c-0.99-0.897-2.229-1.332-3.5-1.332c-2.093,0-3.548,1.284-3.548,3.175v0.032c0,1.86,1.193,2.587,3.113,3.333 c1.551,0.588,1.861,0.93,1.861,1.472v0.015c0,0.637-0.527,1.07-1.395,1.07c-1.086,0-1.969-0.59-2.696-1.225l-1.332,1.658 C45.573,159.215,47.012,159.695,48.393,159.695 M53.128,159.556h2.245v-10.847h-2.245V159.556z M56.996,159.556h2.198v-6.553 l4.295,6.553h1.918v-10.847h-2.198v6.322l-4.155-6.322h-2.059V159.556z M71.591,159.711c1.611,0,2.866-0.604,3.857-1.348v-5.021 h-4.106v1.953h1.97v1.923c-0.403,0.296-0.977,0.449-1.612,0.449c-1.598,0-2.821-1.256-2.821-3.487v-0.125 c0-1.997,1.179-3.409,2.729-3.409c1.038,0,1.674,0.403,2.247,0.93l1.331-1.75c-0.99-0.837-2.027-1.27-3.548-1.27 c-2.944,0-5.067,2.307-5.067,5.516v0.14C66.57,157.605,68.677,159.711,71.591,159.711 M76.901,159.556h2.244v-10.847h-2.244 V159.556z M80.768,159.556h2.199v-6.553l4.294,6.553h1.92v-10.847h-2.199v6.322l-4.155-6.322h-2.059V159.556z M96.695,159.556 h2.246v-4.307l3.533-6.54h-2.479l-2.154,4.263l-2.137-4.263h-2.542l3.533,6.57V159.556z M102.947,159.556h6.629v-2.059h-4.386 v-8.788h-2.243V159.556z M110.358,159.556h2.245v-10.847h-2.245V159.556z M118.626,159.742c2.866,0,4.911-2.291,4.911-5.531 v-0.188c0-3.239-2.012-5.499-4.896-5.499c-2.868,0-4.91,2.277-4.91,5.53v0.187C113.731,157.48,115.744,159.742,118.626,159.742  M118.641,157.667c-1.502,0-2.604-1.349-2.604-3.487v-0.108c0-2.141,1.07-3.473,2.59-3.473c1.503,0,2.59,1.351,2.59,3.487v0.108 C121.216,156.333,120.146,157.667,118.641,157.667 M124.445,159.556h2.243v-3.301h1.274c2.278-0.046,4.057-1.3,4.057-3.796 v-0.029c0-2.31-1.531-3.721-3.965-3.721h-3.609V159.556z M126.688,154.242v-3.505h1.226c1.194,0,1.847,0.622,1.847,1.753v0.016 c0,1.007-0.652,1.736-1.814,1.736H126.688z M132.748,159.556h2.246v-10.847h-2.246V159.556z M139.588,159.695 c2.107,0,3.642-1.238,3.642-3.253v-0.031c0-1.689-1.022-2.493-2.911-3.24c-1.691-0.695-2.063-0.991-2.063-1.61v-0.017 c0-0.558,0.48-0.945,1.254-0.945c0.84,0,1.63,0.45,2.312,1.008l1.253-1.704c-0.989-0.897-2.228-1.332-3.499-1.332 c-2.094,0-3.55,1.284-3.55,3.175v0.032c0,1.86,1.192,2.587,3.114,3.333c1.551,0.588,1.861,0.93,1.861,1.472v0.015 c0,0.637-0.526,1.07-1.396,1.07c-1.087,0-1.97-0.59-2.695-1.225l-1.333,1.658C136.769,159.215,138.208,159.695,139.588,159.695  M146.028,159.556h2.229v-8.771h2.727v-2.075h-7.685v2.075h2.729V159.556z M155.643,159.742c2.866,0,4.911-2.291,4.911-5.531 v-0.188c0-3.239-2.014-5.499-4.896-5.499c-2.868,0-4.91,2.277-4.91,5.53v0.187C150.748,157.48,152.76,159.742,155.643,159.742  M155.658,157.667c-1.502,0-2.604-1.349-2.604-3.487v-0.108c0-2.141,1.07-3.473,2.59-3.473c1.503,0,2.588,1.351,2.588,3.487 v0.108C158.231,156.333,157.163,157.667,155.658,157.667"
 id="path2928" />
</svg>