<svg xmlns="http://www.w3.org/2000/svg" viewBox="0 0 200 200" width="100%" height="100%" preserveAspectRatio="xMidYMid meet" fill="none" stroke="#111111" stroke-linecap="round" stroke-linejoin="round" font-family="-apple-system, BlinkMacSystemFont, 'Segoe UI', Roboto, sans-serif"><rect x="10" y="10" width="180" height="180" rx="8" ry="8" fill="#fafafa" stroke="#111111" stroke-width="4"/><line x1="100" y1="10" x2="100" y2="190" stroke="#111111" stroke-width="0.8" stroke-dasharray="2 3" opacity="0.35"/><line x1="10" y1="100" x2="190" y2="100" stroke="#111111" stroke-width="0.8" stroke-dasharray="2 3" opacity="0.35"/><rect x="92.0" y="28" width="16" height="144" rx="2" fill="#8e8e8e" stroke="#111111" stroke-width="2"/><rect x="70.0" y="88.0" width="60" height="24" rx="2" fill="#444444" stroke="#111111" stroke-width="2"/><rect x="158" y="84.0" width="32" height="32" rx="3" fill="#444444" stroke="#111111" stroke-width="2"/><circle cx="174" cy="100.0" r="8" fill="#ffffff" stroke="#111111" stroke-width="1.4"/><text x="174" y="104.0" text-anchor="middle" font-size="11" font-weight="800" fill="#111111" stroke="none">M</text><circle cx="161" cy="87.0" r="1.5" fill="#111111" stroke="none"/><circle cx="187" cy="87.0" r="1.5" fill="#111111" stroke="none"/><circle cx="161" cy="113.0" r="1.5" fill="#111111" stroke="none"/><circle cx="187" cy="113.0" r="1.5" fill="#111111" stroke="none"/><line x1="130.0" y1="100.0" x2="158" y2="100.0" stroke="#111111" stroke-width="2"/><line x1="32" y1="40" x2="32" y2="160" stroke="#111111" stroke-width="2"/><path d="M 32 32 l -4 8 l 8 0 z" fill="#111111" stroke="none"/><path d="M 32 168 l -4 -8 l 8 0 z" fill="#111111" stroke="none"/><text x="32" y="105.0" text-anchor="middle" font-size="14" font-weight="800" fill="#111111" stroke="none">Z</text></svg>