<svg xmlns="http://www.w3.org/2000/svg" viewBox="0 0 300 200" width="100%" height="100%" preserveAspectRatio="xMidYMid meet" fill="none" stroke="#111111" stroke-linecap="round" stroke-linejoin="round" font-family="-apple-system, BlinkMacSystemFont, 'Segoe UI', Roboto, sans-serif"><rect x="10" y="10" width="280" height="180" rx="8" ry="8" fill="#fafafa" stroke="#111111" stroke-width="4"/><line x1="100" y1="10" x2="100" y2="190" stroke="#111111" stroke-width="0.8" stroke-dasharray="2 3" opacity="0.35"/><line x1="200" y1="10" x2="200" y2="190" stroke="#111111" stroke-width="0.8" stroke-dasharray="2 3" opacity="0.35"/><line x1="10" y1="100" x2="290" y2="100" stroke="#111111" stroke-width="0.8" stroke-dasharray="2 3" opacity="0.35"/><rect x="24" y="164" width="252" height="14" rx="2" fill="#444444" stroke="#111111" stroke-width="2"/><rect x="32" y="96.0" width="236" height="10" rx="2" fill="#8e8e8e" stroke="#111111" stroke-width="1.6"/><rect x="145.0" y="28" width="10" height="134" rx="2" fill="#8e8e8e" stroke="#111111" stroke-width="1.6"/><rect x="145.0" y="20" width="10" height="20" rx="2" fill="#444444" stroke="#111111" stroke-width="1.6"/><rect x="128.0" y="78.0" width="44" height="20" rx="3" fill="#444444" stroke="#111111" stroke-width="2"/><line x1="34" y1="178" x2="56" y2="178" stroke="#111111" stroke-width="1.6"/><path d="M 56 178 l -5 -3 l 0 6 z" fill="#111111" stroke="none"/><text x="60" y="181" text-anchor="middle" font-size="8" font-weight="700" fill="#111111" stroke="none">X</text><line x1="34" y1="178" x2="49" y2="166" stroke="#111111" stroke-width="1.6"/><path d="M 49 166 l -2 -5 l 5 2 z" fill="#111111" stroke="none"/><text x="53" y="164" text-anchor="middle" font-size="8" font-weight="700" fill="#111111" stroke="none">Y</text><line x1="34" y1="178" x2="34" y2="156" stroke="#111111" stroke-width="1.6"/><path d="M 34 156 l -3 5 l 6 0 z" fill="#111111" stroke="none"/><text x="27" y="156" text-anchor="middle" font-size="8" font-weight="700" fill="#111111" stroke="none">Z</text></svg>