<svg xmlns="http://www.w3.org/2000/svg" viewBox="0 0 300 200" width="100%" height="100%" preserveAspectRatio="xMidYMid meet" fill="none" stroke="#111111" stroke-linecap="round" stroke-linejoin="round" font-family="-apple-system, BlinkMacSystemFont, 'Segoe UI', Roboto, sans-serif"><rect x="10" y="10" width="280" height="180" rx="8" ry="8" fill="#fafafa" stroke="#111111" stroke-width="4"/><line x1="100" y1="10" x2="100" y2="190" stroke="#111111" stroke-width="0.8" stroke-dasharray="2 3" opacity="0.35"/><line x1="200" y1="10" x2="200" y2="190" stroke="#111111" stroke-width="0.8" stroke-dasharray="2 3" opacity="0.35"/><line x1="10" y1="100" x2="290" y2="100" stroke="#111111" stroke-width="0.8" stroke-dasharray="2 3" opacity="0.35"/><rect x="20" y="20" width="260" height="160" rx="4" fill="#a1a1a1" stroke="#111111" stroke-width="2"/><circle cx="32.0" cy="32.0" r="2.4" fill="#ffffff" stroke="#111111" stroke-width="0.6"/><circle cx="32.0" cy="51.42857142857143" r="2.4" fill="#ffffff" stroke="#111111" stroke-width="0.6"/><circle cx="32.0" cy="70.85714285714286" r="2.4" fill="#ffffff" stroke="#111111" stroke-width="0.6"/><circle cx="32.0" cy="90.28571428571428" r="2.4" fill="#ffffff" stroke="#111111" stroke-width="0.6"/><circle cx="32.0" cy="109.71428571428571" r="2.4" fill="#ffffff" stroke="#111111" stroke-width="0.6"/><circle cx="32.0" cy="129.14285714285714" r="2.4" fill="#ffffff" stroke="#111111" stroke-width="0.6"/><circle cx="32.0" cy="148.57142857142856" r="2.4" fill="#ffffff" stroke="#111111" stroke-width="0.6"/><circle cx="32.0" cy="168.0" r="2.4" fill="#ffffff" stroke="#111111" stroke-width="0.6"/><circle cx="53.45454545454545" cy="32.0" r="2.4" fill="#ffffff" stroke="#111111" stroke-width="0.6"/><circle cx="53.45454545454545" cy="51.42857142857143" r="2.4" fill="#ffffff" stroke="#111111" stroke-width="0.6"/><circle cx="53.45454545454545" cy="70.85714285714286" r="2.4" fill="#ffffff" stroke="#111111" stroke-width="0.6"/><circle cx="53.45454545454545" cy="90.28571428571428" r="2.4" fill="#ffffff" stroke="#111111" stroke-width="0.6"/><circle cx="53.45454545454545" cy="109.71428571428571" r="2.4" fill="#ffffff" stroke="#111111" stroke-width="0.6"/><circle cx="53.45454545454545" cy="129.14285714285714" r="2.4" fill="#ffffff" stroke="#111111" stroke-width="0.6"/><circle cx="53.45454545454545" cy="148.57142857142856" r="2.4" fill="#ffffff" stroke="#111111" stroke-width="0.6"/><circle cx="53.45454545454545" cy="168.0" r="2.4" fill="#ffffff" stroke="#111111" stroke-width="0.6"/><circle cx="74.9090909090909" cy="32.0" r="2.4" fill="#ffffff" stroke="#111111" stroke-width="0.6"/><circle cx="74.9090909090909" cy="51.42857142857143" r="2.4" fill="#ffffff" stroke="#111111" stroke-width="0.6"/><circle cx="74.9090909090909" cy="70.85714285714286" r="2.4" fill="#ffffff" stroke="#111111" stroke-width="0.6"/><circle cx="74.9090909090909" cy="90.28571428571428" r="2.4" fill="#ffffff" stroke="#111111" stroke-width="0.6"/><circle cx="74.9090909090909" cy="109.71428571428571" r="2.4" fill="#ffffff" stroke="#111111" stroke-width="0.6"/><circle cx="74.9090909090909" cy="129.14285714285714" r="2.4" fill="#ffffff" stroke="#111111" stroke-width="0.6"/><circle cx="74.9090909090909" cy="148.57142857142856" r="2.4" fill="#ffffff" stroke="#111111" stroke-width="0.6"/><circle cx="74.9090909090909" cy="168.0" r="2.4" fill="#ffffff" stroke="#111111" stroke-width="0.6"/><circle cx="96.36363636363636" cy="32.0" r="2.4" fill="#ffffff" stroke="#111111" stroke-width="0.6"/><circle cx="96.36363636363636" cy="51.42857142857143" r="2.4" fill="#ffffff" stroke="#111111" stroke-width="0.6"/><circle cx="96.36363636363636" cy="70.85714285714286" r="2.4" fill="#ffffff" stroke="#111111" stroke-width="0.6"/><circle cx="96.36363636363636" cy="90.28571428571428" r="2.4" fill="#ffffff" stroke="#111111" stroke-width="0.6"/><circle cx="96.36363636363636" cy="109.71428571428571" r="2.4" fill="#ffffff" stroke="#111111" stroke-width="0.6"/><circle cx="96.36363636363636" cy="129.14285714285714" r="2.4" fill="#ffffff" stroke="#111111" stroke-width="0.6"/><circle cx="96.36363636363636" cy="148.57142857142856" r="2.4" fill="#ffffff" stroke="#111111" stroke-width="0.6"/><circle cx="96.36363636363636" cy="168.0" r="2.4" fill="#ffffff" stroke="#111111" stroke-width="0.6"/><circle cx="117.81818181818181" cy="32.0" r="2.4" fill="#ffffff" stroke="#111111" stroke-width="0.6"/><circle cx="117.81818181818181" cy="51.42857142857143" r="2.4" fill="#ffffff" stroke="#111111" stroke-width="0.6"/><circle cx="117.81818181818181" cy="70.85714285714286" r="2.4" fill="#ffffff" stroke="#111111" stroke-width="0.6"/><circle cx="117.81818181818181" cy="90.28571428571428" r="2.4" fill="#ffffff" stroke="#111111" stroke-width="0.6"/><circle cx="117.81818181818181" cy="109.71428571428571" r="2.4" fill="#ffffff" stroke="#111111" stroke-width="0.6"/><circle cx="117.81818181818181" cy="129.14285714285714" r="2.4" fill="#ffffff" stroke="#111111" stroke-width="0.6"/><circle cx="117.81818181818181" cy="148.57142857142856" r="2.4" fill="#ffffff" stroke="#111111" stroke-width="0.6"/><circle cx="117.81818181818181" cy="168.0" r="2.4" fill="#ffffff" stroke="#111111" stroke-width="0.6"/><circle cx="139.27272727272725" cy="32.0" r="2.4" fill="#ffffff" stroke="#111111" stroke-width="0.6"/><circle cx="139.27272727272725" cy="51.42857142857143" r="2.4" fill="#ffffff" stroke="#111111" stroke-width="0.6"/><circle cx="139.27272727272725" cy="70.85714285714286" r="2.4" fill="#ffffff" stroke="#111111" stroke-width="0.6"/><circle cx="139.27272727272725" cy="90.28571428571428" r="2.4" fill="#ffffff" stroke="#111111" stroke-width="0.6"/><circle cx="139.27272727272725" cy="109.71428571428571" r="2.4" fill="#ffffff" stroke="#111111" stroke-width="0.6"/><circle cx="139.27272727272725" cy="129.14285714285714" r="2.4" fill="#ffffff" stroke="#111111" stroke-width="0.6"/><circle cx="139.27272727272725" cy="148.57142857142856" r="2.4" fill="#ffffff" stroke="#111111" stroke-width="0.6"/><circle cx="139.27272727272725" cy="168.0" r="2.4" fill="#ffffff" stroke="#111111" stroke-width="0.6"/><circle cx="160.72727272727272" cy="32.0" r="2.4" fill="#ffffff" stroke="#111111" stroke-width="0.6"/><circle cx="160.72727272727272" cy="51.42857142857143" r="2.4" fill="#ffffff" stroke="#111111" stroke-width="0.6"/><circle cx="160.72727272727272" cy="70.85714285714286" r="2.4" fill="#ffffff" stroke="#111111" stroke-width="0.6"/><circle cx="160.72727272727272" cy="90.28571428571428" r="2.4" fill="#ffffff" stroke="#111111" stroke-width="0.6"/><circle cx="160.72727272727272" cy="109.71428571428571" r="2.4" fill="#ffffff" stroke="#111111" stroke-width="0.6"/><circle cx="160.72727272727272" cy="129.14285714285714" r="2.4" fill="#ffffff" stroke="#111111" stroke-width="0.6"/><circle cx="160.72727272727272" cy="148.57142857142856" r="2.4" fill="#ffffff" stroke="#111111" stroke-width="0.6"/><circle cx="160.72727272727272" cy="168.0" r="2.4" fill="#ffffff" stroke="#111111" stroke-width="0.6"/><circle cx="182.1818181818182" cy="32.0" r="2.4" fill="#ffffff" stroke="#111111" stroke-width="0.6"/><circle cx="182.1818181818182" cy="51.42857142857143" r="2.4" fill="#ffffff" stroke="#111111" stroke-width="0.6"/><circle cx="182.1818181818182" cy="70.85714285714286" r="2.4" fill="#ffffff" stroke="#111111" stroke-width="0.6"/><circle cx="182.1818181818182" cy="90.28571428571428" r="2.4" fill="#ffffff" stroke="#111111" stroke-width="0.6"/><circle cx="182.1818181818182" cy="109.71428571428571" r="2.4" fill="#ffffff" stroke="#111111" stroke-width="0.6"/><circle cx="182.1818181818182" cy="129.14285714285714" r="2.4" fill="#ffffff" stroke="#111111" stroke-width="0.6"/><circle cx="182.1818181818182" cy="148.57142857142856" r="2.4" fill="#ffffff" stroke="#111111" stroke-width="0.6"/><circle cx="182.1818181818182" cy="168.0" r="2.4" fill="#ffffff" stroke="#111111" stroke-width="0.6"/><circle cx="203.63636363636363" cy="32.0" r="2.4" fill="#ffffff" stroke="#111111" stroke-width="0.6"/><circle cx="203.63636363636363" cy="51.42857142857143" r="2.4" fill="#ffffff" stroke="#111111" stroke-width="0.6"/><circle cx="203.63636363636363" cy="70.85714285714286" r="2.4" fill="#ffffff" stroke="#111111" stroke-width="0.6"/><circle cx="203.63636363636363" cy="90.28571428571428" r="2.4" fill="#ffffff" stroke="#111111" stroke-width="0.6"/><circle cx="203.63636363636363" cy="109.71428571428571" r="2.4" fill="#ffffff" stroke="#111111" stroke-width="0.6"/><circle cx="203.63636363636363" cy="129.14285714285714" r="2.4" fill="#ffffff" stroke="#111111" stroke-width="0.6"/><circle cx="203.63636363636363" cy="148.57142857142856" r="2.4" fill="#ffffff" stroke="#111111" stroke-width="0.6"/><circle cx="203.63636363636363" cy="168.0" r="2.4" fill="#ffffff" stroke="#111111" stroke-width="0.6"/><circle cx="225.09090909090907" cy="32.0" r="2.4" fill="#ffffff" stroke="#111111" stroke-width="0.6"/><circle cx="225.09090909090907" cy="51.42857142857143" r="2.4" fill="#ffffff" stroke="#111111" stroke-width="0.6"/><circle cx="225.09090909090907" cy="70.85714285714286" r="2.4" fill="#ffffff" stroke="#111111" stroke-width="0.6"/><circle cx="225.09090909090907" cy="90.28571428571428" r="2.4" fill="#ffffff" stroke="#111111" stroke-width="0.6"/><circle cx="225.09090909090907" cy="109.71428571428571" r="2.4" fill="#ffffff" stroke="#111111" stroke-width="0.6"/><circle cx="225.09090909090907" cy="129.14285714285714" r="2.4" fill="#ffffff" stroke="#111111" stroke-width="0.6"/><circle cx="225.09090909090907" cy="148.57142857142856" r="2.4" fill="#ffffff" stroke="#111111" stroke-width="0.6"/><circle cx="225.09090909090907" cy="168.0" r="2.4" fill="#ffffff" stroke="#111111" stroke-width="0.6"/><circle cx="246.54545454545453" cy="32.0" r="2.4" fill="#ffffff" stroke="#111111" stroke-width="0.6"/><circle cx="246.54545454545453" cy="51.42857142857143" r="2.4" fill="#ffffff" stroke="#111111" stroke-width="0.6"/><circle cx="246.54545454545453" cy="70.85714285714286" r="2.4" fill="#ffffff" stroke="#111111" stroke-width="0.6"/><circle cx="246.54545454545453" cy="90.28571428571428" r="2.4" fill="#ffffff" stroke="#111111" stroke-width="0.6"/><circle cx="246.54545454545453" cy="109.71428571428571" r="2.4" fill="#ffffff" stroke="#111111" stroke-width="0.6"/><circle cx="246.54545454545453" cy="129.14285714285714" r="2.4" fill="#ffffff" stroke="#111111" stroke-width="0.6"/><circle cx="246.54545454545453" cy="148.57142857142856" r="2.4" fill="#ffffff" stroke="#111111" stroke-width="0.6"/><circle cx="246.54545454545453" cy="168.0" r="2.4" fill="#ffffff" stroke="#111111" stroke-width="0.6"/><circle cx="268.0" cy="32.0" r="2.4" fill="#ffffff" stroke="#111111" stroke-width="0.6"/><circle cx="268.0" cy="51.42857142857143" r="2.4" fill="#ffffff" stroke="#111111" stroke-width="0.6"/><circle cx="268.0" cy="70.85714285714286" r="2.4" fill="#ffffff" stroke="#111111" stroke-width="0.6"/><circle cx="268.0" cy="90.28571428571428" r="2.4" fill="#ffffff" stroke="#111111" stroke-width="0.6"/><circle cx="268.0" cy="109.71428571428571" r="2.4" fill="#ffffff" stroke="#111111" stroke-width="0.6"/><circle cx="268.0" cy="129.14285714285714" r="2.4" fill="#ffffff" stroke="#111111" stroke-width="0.6"/><circle cx="268.0" cy="148.57142857142856" r="2.4" fill="#ffffff" stroke="#111111" stroke-width="0.6"/><circle cx="268.0" cy="168.0" r="2.4" fill="#ffffff" stroke="#111111" stroke-width="0.6"/><text x="150.0" y="183" text-anchor="middle" font-size="8" font-weight="600" fill="#444444" stroke="none">96-well plate</text></svg>