<svg xmlns="http://www.w3.org/2000/svg" viewBox="0 0 400 100" width="100%" height="100%" preserveAspectRatio="xMidYMid meet" fill="none" stroke="#111111" stroke-linecap="round" stroke-linejoin="round" font-family="-apple-system, BlinkMacSystemFont, 'Segoe UI', Roboto, sans-serif"><rect x="10" y="10" width="380" height="80" rx="8" ry="8" fill="#fafafa" stroke="#111111" stroke-width="4"/><line x1="100" y1="10" x2="100" y2="90" stroke="#111111" stroke-width="0.8" stroke-dasharray="2 3" opacity="0.35"/><line x1="200" y1="10" x2="200" y2="90" stroke="#111111" stroke-width="0.8" stroke-dasharray="2 3" opacity="0.35"/><line x1="300" y1="10" x2="300" y2="90" stroke="#111111" stroke-width="0.8" stroke-dasharray="2 3" opacity="0.35"/><line x1="14" y1="50.0" x2="386" y2="50.0" stroke="#444444" stroke-width="1" stroke-dasharray="6 4" opacity="0.55"/><rect x="24" y="24" width="22" height="12" rx="2" fill="#8100c7" stroke="#111111" stroke-width="1"/><text x="35.0" y="33" text-anchor="middle" font-size="7" font-weight="700" fill="#fff" stroke="none">405</text><rect x="24" y="38" width="22" height="12" rx="2" fill="#00f6ff" stroke="#111111" stroke-width="1"/><text x="35.0" y="47" text-anchor="middle" font-size="7" font-weight="700" fill="#fff" stroke="none">488</text><rect x="24" y="52" width="22" height="12" rx="2" fill="#c5ff00" stroke="#111111" stroke-width="1"/><text x="35.0" y="61" text-anchor="middle" font-size="7" font-weight="700" fill="#fff" stroke="none">561</text><rect x="24" y="66" width="22" height="12" rx="2" fill="#ff2a00" stroke="#111111" stroke-width="1"/><text x="35.0" y="75" text-anchor="middle" font-size="7" font-weight="700" fill="#fff" stroke="none">638</text><line x1="53" y1="23.0" x2="67" y2="37.0" stroke="#111111" stroke-width="1.6"/><line x1="46" y1="30.0" x2="60" y2="30.0" stroke="#8100c7" stroke-width="1.4" opacity="0.85" /><line x1="60" y1="30.0" x2="60" y2="50.0" stroke="#8100c7" stroke-width="1.4" opacity="0.85" /><line x1="60" y1="50.0" x2="384" y2="50.0" stroke="#8100c7" stroke-width="1.2" opacity="0.7" /><line x1="83" y1="37.0" x2="97" y2="51.0" stroke="#111111" stroke-width="1.6"/><line x1="46" y1="44.0" x2="90" y2="44.0" stroke="#00f6ff" stroke-width="1.4" opacity="0.85" /><line x1="90" y1="44.0" x2="90" y2="50.0" stroke="#00f6ff" stroke-width="1.4" opacity="0.85" /><line x1="90" y1="50.8" x2="384" y2="50.8" stroke="#00f6ff" stroke-width="1.2" opacity="0.7" /><line x1="113" y1="51.0" x2="127" y2="65.0" stroke="#111111" stroke-width="1.6"/><line x1="46" y1="58.0" x2="120" y2="58.0" stroke="#c5ff00" stroke-width="1.4" opacity="0.85" /><line x1="120" y1="58.0" x2="120" y2="50.0" stroke="#c5ff00" stroke-width="1.4" opacity="0.85" /><line x1="120" y1="51.6" x2="384" y2="51.6" stroke="#c5ff00" stroke-width="1.2" opacity="0.7" /><line x1="143" y1="65.0" x2="157" y2="79.0" stroke="#111111" stroke-width="1.6"/><line x1="46" y1="72.0" x2="150" y2="72.0" stroke="#ff2a00" stroke-width="1.4" opacity="0.85" /><line x1="150" y1="72.0" x2="150" y2="50.0" stroke="#ff2a00" stroke-width="1.4" opacity="0.85" /><line x1="150" y1="52.4" x2="384" y2="52.4" stroke="#ff2a00" stroke-width="1.2" opacity="0.7" /></svg>