<svg xmlns="http://www.w3.org/2000/svg" viewBox="0 0 200 200" width="100%" height="100%" preserveAspectRatio="xMidYMid meet" fill="none" stroke="#111111" stroke-linecap="round" stroke-linejoin="round" font-family="-apple-system, BlinkMacSystemFont, 'Segoe UI', Roboto, sans-serif"><rect x="10" y="10" width="180" height="180" rx="8" ry="8" fill="#fafafa" stroke="#111111" stroke-width="4"/><line x1="100" y1="10" x2="100" y2="190" stroke="#111111" stroke-width="0.8" stroke-dasharray="2 3" opacity="0.35"/><line x1="10" y1="100" x2="190" y2="100" stroke="#111111" stroke-width="0.8" stroke-dasharray="2 3" opacity="0.35"/><rect x="20" y="20" width="160" height="160" rx="3" fill="#1a6c3a" stroke="#111111" stroke-width="1.6"/><circle cx="25" cy="25" r="2" fill="#ffffff" stroke="#111111" stroke-width="0.6"/><circle cx="175" cy="25" r="2" fill="#ffffff" stroke="#111111" stroke-width="0.6"/><circle cx="25" cy="175" r="2" fill="#ffffff" stroke="#111111" stroke-width="0.6"/><circle cx="175" cy="175" r="2" fill="#ffffff" stroke="#111111" stroke-width="0.6"/><rect x="86.0" y="86.0" width="28" height="28" fill="#222" stroke="#111111" stroke-width="1"/><text x="100.0" y="103.0" text-anchor="middle" font-size="8" font-weight="700" fill="#fff" stroke="none">SoC</text><rect x="28" y="26" width="2" height="6" fill="#222"/><rect x="31" y="26" width="2" height="6" fill="#222"/><rect x="34" y="26" width="2" height="6" fill="#222"/><rect x="37" y="26" width="2" height="6" fill="#222"/><rect x="40" y="26" width="2" height="6" fill="#222"/><rect x="43" y="26" width="2" height="6" fill="#222"/><rect x="46" y="26" width="2" height="6" fill="#222"/><rect x="49" y="26" width="2" height="6" fill="#222"/><rect x="52" y="26" width="2" height="6" fill="#222"/><rect x="55" y="26" width="2" height="6" fill="#222"/><rect x="58" y="26" width="2" height="6" fill="#222"/><rect x="61" y="26" width="2" height="6" fill="#222"/><rect x="64" y="26" width="2" height="6" fill="#222"/><rect x="67" y="26" width="2" height="6" fill="#222"/><rect x="70" y="26" width="2" height="6" fill="#222"/><rect x="73" y="26" width="2" height="6" fill="#222"/><rect x="76" y="26" width="2" height="6" fill="#222"/><rect x="79" y="26" width="2" height="6" fill="#222"/><rect x="82" y="26" width="2" height="6" fill="#222"/><rect x="85" y="26" width="2" height="6" fill="#222"/><rect x="168" y="78.0" width="14" height="12" fill="#444444" stroke="#111111" stroke-width="1"/><rect x="168" y="98.0" width="14" height="12" fill="#444444" stroke="#111111" stroke-width="1"/><rect x="168" y="116.0" width="14" height="14" fill="#444444" stroke="#111111" stroke-width="1"/><text x="32" y="174" text-anchor="middle" font-size="10" font-weight="800" fill="#dff5e3" stroke="none">Pi 5</text></svg>