<svg xmlns="http://www.w3.org/2000/svg" viewBox="0 0 200 100" width="100%" height="100%" preserveAspectRatio="xMidYMid meet" fill="none" stroke="#111111" stroke-linecap="round" stroke-linejoin="round" font-family="-apple-system, BlinkMacSystemFont, 'Segoe UI', Roboto, sans-serif"><rect x="10" y="10" width="180" height="80" rx="8" ry="8" fill="#fafafa" stroke="#111111" stroke-width="4"/><line x1="100" y1="10" x2="100" y2="90" stroke="#111111" stroke-width="0.8" stroke-dasharray="2 3" opacity="0.35"/><rect x="20" y="20" width="160" height="60" rx="3" fill="#1a6c3a" stroke="#111111" stroke-width="1.6"/><circle cx="25" cy="25" r="2" fill="#ffffff" stroke="#111111" stroke-width="0.6"/><circle cx="175" cy="25" r="2" fill="#ffffff" stroke="#111111" stroke-width="0.6"/><circle cx="25" cy="75" r="2" fill="#ffffff" stroke="#111111" stroke-width="0.6"/><circle cx="175" cy="75" r="2" fill="#ffffff" stroke="#111111" stroke-width="0.6"/><circle cx="42" cy="50.0" r="22" fill="#444444" stroke="#111111" stroke-width="2"/><line x1="61.0" y1="50.0" x2="64.0" y2="50.0" stroke="#111111" stroke-width="1.2"/><line x1="59.55371111771445" y1="57.27098521493671" x2="62.32534971524831" y2="58.419035512031975" stroke="#111111" stroke-width="1.2"/><line x1="55.435028842544405" y1="63.4350288425444" x2="57.55634918610404" y2="65.55634918610404" stroke="#111111" stroke-width="1.2"/><line x1="49.27098521493671" y1="67.55371111771444" x2="50.419035512031975" y2="70.32534971524831" stroke="#111111" stroke-width="1.2"/><line x1="42.0" y1="69.0" x2="42.0" y2="72.0" stroke="#111111" stroke-width="1.2"/><line x1="34.7290147850633" y1="67.55371111771444" x2="33.580964487968025" y2="70.32534971524831" stroke="#111111" stroke-width="1.2"/><line x1="28.5649711574556" y1="63.435028842544405" x2="26.443650813895957" y2="65.55634918610404" stroke="#111111" stroke-width="1.2"/><line x1="24.44628888228555" y1="57.27098521493671" x2="21.674650284751692" y2="58.419035512031975" stroke="#111111" stroke-width="1.2"/><line x1="23.0" y1="50.0" x2="20.0" y2="50.0" stroke="#111111" stroke-width="1.2"/><line x1="24.44628888228555" y1="42.7290147850633" x2="21.67465028475169" y2="41.580964487968025" stroke="#111111" stroke-width="1.2"/><line x1="28.564971157455595" y1="36.5649711574556" x2="26.44365081389595" y2="34.44365081389596" stroke="#111111" stroke-width="1.2"/><line x1="34.729014785063285" y1="32.44628888228556" x2="33.58096448796801" y2="29.674650284751696" stroke="#111111" stroke-width="1.2"/><line x1="42.0" y1="31.0" x2="41.99999999999999" y2="28.0" stroke="#111111" stroke-width="1.2"/><line x1="49.27098521493671" y1="32.44628888228556" x2="50.41903551203198" y2="29.674650284751696" stroke="#111111" stroke-width="1.2"/><line x1="55.4350288425444" y1="36.564971157455595" x2="57.55634918610404" y2="34.44365081389595" stroke="#111111" stroke-width="1.2"/><line x1="59.55371111771444" y1="42.729014785063285" x2="62.32534971524831" y2="41.58096448796801" stroke="#111111" stroke-width="1.2"/><circle cx="42" cy="50.0" r="6" fill="#ffffff" stroke="#111111" stroke-width="1.4"/><circle cx="56" cy="38.0" r="2" fill="#dc3545"/><rect x="164" y="36.0" width="14" height="6" fill="#000"/><rect x="164" y="44.0" width="14" height="6" fill="#000"/><rect x="164" y="52.0" width="14" height="6" fill="#000"/><rect x="164" y="60.0" width="14" height="6" fill="#000"/><text x="171" y="75.0" text-anchor="middle" font-size="8" font-weight="700" fill="#dff5e3" stroke="none">CAN</text></svg>