<svg width="1160" height="692" xmlns="http://www.w3.org/2000/svg" xmlns:xlink="http://www.w3.org/1999/xlink" xml:space="preserve" overflow="hidden"><defs><clipPath id="clip0"><rect x="2882" y="210" width="1160" height="692"/></clipPath><clipPath id="clip1"><rect x="2882" y="210" width="1160" height="692"/></clipPath></defs><g clip-path="url(#clip0)" transform="translate(-2882 -210)"><g clip-path="url(#clip1)"><rect x="3324.5" y="513.5" width="296" height="306" stroke="#000000" stroke-width="9.16667" stroke-linecap="butt" stroke-linejoin="round" stroke-miterlimit="10" stroke-opacity="1" fill="#000000" fill-opacity="1"/><rect x="3218.5" y="715.5" width="296" height="65.0003" stroke="#000000" stroke-width="9.16667" stroke-linecap="butt" stroke-linejoin="round" stroke-miterlimit="10" stroke-opacity="1" fill="#000000" fill-opacity="1"/><rect x="0" y="0" width="378" height="378" stroke="#000000" stroke-width="27.5" stroke-linecap="butt" stroke-linejoin="miter" stroke-miterlimit="8" stroke-opacity="1" fill="none" transform="matrix(1.83697e-16 1 1 -1.83697e-16 3283 477)"/><rect x="0" y="0" width="378" height="377" stroke="#000000" stroke-width="27.5" stroke-linecap="butt" stroke-linejoin="miter" stroke-miterlimit="8" stroke-opacity="1" fill="none" transform="matrix(1.83697e-16 1 1 -1.83697e-16 2900 477)"/><rect x="3344.5" y="291.5" width="253" height="240" stroke="#000000" stroke-width="9.16667" stroke-linecap="butt" stroke-linejoin="round" stroke-miterlimit="10" stroke-opacity="1" fill="#000000" fill-opacity="1"/><rect x="3344.5" y="263.5" width="602" height="66" stroke="#000000" stroke-width="9.16667" stroke-linecap="butt" stroke-linejoin="round" stroke-miterlimit="10" stroke-opacity="1" fill="#000000" fill-opacity="1"/><path d="M3402.5 757C3402.5 718.064 3434.06 686.5 3473 686.5 3511.94 686.5 3543.5 718.064 3543.5 757 3543.5 795.936 3511.94 827.5 3473 827.5 3434.06 827.5 3402.5 795.936 3402.5 757Z" stroke="#FFFFFF" stroke-width="9.16667" stroke-linecap="square" stroke-linejoin="round" stroke-miterlimit="10" stroke-dasharray="27.5 9.16667" stroke-opacity="1" fill="#000000" fill-rule="evenodd" fill-opacity="1"/><rect x="3215.5" y="549.5" width="296" height="63.9999" stroke="#000000" stroke-width="9.16667" stroke-linecap="butt" stroke-linejoin="round" stroke-miterlimit="10" stroke-opacity="1" fill="#000000" fill-opacity="1"/><path d="M17.4198 14.9891 121.541 119.11 119.11 121.541 14.9891 17.4198ZM9.72272 29.1682 0 0 29.1682 9.72272ZM126.807 107.362 136.53 136.53 107.362 126.807Z" fill="#000000" fill-rule="nonzero" fill-opacity="1" transform="matrix(-1 0 0 1 3149.03 242.5)"/><path d="M3082.22 265.417 3082.22 363.079 3078.78 363.079 3078.78 265.417ZM3066.75 270 3080.5 242.5 3094.25 270ZM3094.25 358.496 3080.5 385.996 3066.75 358.496Z" fill="#000000" fill-rule="nonzero" fill-opacity="1"/><path d="M3049.42 312.781 3121.82 312.782 3121.82 316.219 3049.42 316.219ZM3054 328.25 3026.5 314.5 3054 300.75ZM3117.24 300.75 3144.74 314.5 3117.24 328.25Z" fill="#000000" fill-rule="nonzero" fill-opacity="1"/><text fill="#000000" fill-opacity="1" font-family="Arial,Arial_MSFontService,sans-serif" font-style="normal" font-variant="normal" font-weight="400" font-stretch="normal" font-size="64" text-anchor="start" direction="ltr" writing-mode="lr-tb" unicode-bidi="normal" text-decoration="none" transform="matrix(1 0 0 1 3158.15 402)">xyz</text><rect x="3019.5" y="525.5" width="236" height="119" stroke="#000000" stroke-width="9.16667" stroke-linecap="butt" stroke-linejoin="round" stroke-miterlimit="10" stroke-opacity="1" fill="#000000" fill-opacity="1"/><rect x="3014.5" y="696.5" width="236" height="119" stroke="#000000" stroke-width="9.16667" stroke-linecap="butt" stroke-linejoin="round" stroke-miterlimit="10" stroke-opacity="1" fill="#000000" fill-opacity="1"/><path d="M103.28 76.733C76.6009 78.735 49.9216 80.7371 33.7451 76.733 17.5686 72.7289 11.0495 62.4681 6.22071 52.7079 1.39196 42.9477 0.667611 26.6807 4.77216 18.1719 8.87671 9.66311 20.4657 3.90717 30.8477 1.65474 41.2297-0.597683 57.8892-1.34849 67.064 4.65782 76.2387 10.6641 97.0738 20.4251 85.8964 37.6923 74.719 54.9595 62.6298 124.629 0 108.261" stroke="#000000" stroke-width="10.3125" stroke-linecap="butt" stroke-linejoin="miter" stroke-miterlimit="8" stroke-opacity="1" fill="none" fill-rule="evenodd" transform="matrix(-0.886907 0.461948 0.461948 0.886907 2975.31 500.301)"/><path d="M103.28 76.733C76.6009 78.735 49.9216 80.7371 33.7451 76.733 17.5686 72.7289 11.0495 62.4681 6.22071 52.7079 1.39196 42.9477 0.667611 26.6807 4.77216 18.1719 8.87671 9.66311 20.4657 3.90717 30.8477 1.65474 41.2297-0.597683 57.8892-1.34849 67.064 4.65782 76.2387 10.6641 97.0738 20.4251 85.8964 37.6923 74.719 54.9595 62.6298 124.629 0 108.261" stroke="#000000" stroke-width="10.3125" stroke-linecap="butt" stroke-linejoin="miter" stroke-miterlimit="8" stroke-opacity="1" fill="none" fill-rule="evenodd" transform="matrix(-0.886907 0.461948 0.461948 0.886907 2969.51 665.354)"/></g></g></svg>