<svg xmlns="http://www.w3.org/2000/svg" viewBox="0 0 100 100" width="100%" height="100%" preserveAspectRatio="xMidYMid meet" fill="none" stroke="#111111" stroke-linecap="round" stroke-linejoin="round" font-family="-apple-system, BlinkMacSystemFont, 'Segoe UI', Roboto, sans-serif"><rect x="10" y="10" width="80" height="80" rx="8" ry="8" fill="#fafafa" stroke="#111111" stroke-width="4"/><line x1="14" y1="50.0" x2="86" y2="50.0" stroke="#444444" stroke-width="1" stroke-dasharray="6 4" opacity="0.55"/><rect x="47.0" y="24" width="6" height="52" fill="#444444" stroke="#111111" stroke-width="1.6"/><line x1="47.0" y1="28" x2="53.0" y2="32" stroke="#ffffff" stroke-width="0.8" opacity="0.7"/><line x1="47.0" y1="36" x2="53.0" y2="40" stroke="#ffffff" stroke-width="0.8" opacity="0.7"/><line x1="47.0" y1="44" x2="53.0" y2="48" stroke="#ffffff" stroke-width="0.8" opacity="0.7"/><line x1="47.0" y1="52" x2="53.0" y2="56" stroke="#ffffff" stroke-width="0.8" opacity="0.7"/><line x1="47.0" y1="60" x2="53.0" y2="64" stroke="#ffffff" stroke-width="0.8" opacity="0.7"/><line x1="47.0" y1="68" x2="53.0" y2="72" stroke="#ffffff" stroke-width="0.8" opacity="0.7"/><line x1="47.0" y1="76" x2="53.0" y2="80" stroke="#ffffff" stroke-width="0.8" opacity="0.7"/><line x1="47.0" y1="84" x2="53.0" y2="88" stroke="#ffffff" stroke-width="0.8" opacity="0.7"/><rect x="47.0" y="48.0" width="6" height="4" fill="#ffffff" stroke="none"/><line x1="16" y1="35.0" x2="47.0" y2="35.0" stroke="#f5a524" stroke-width="1.4" opacity="0.6" /><line x1="16" y1="50.0" x2="50.0" y2="50.0" stroke="#f5a524" stroke-width="1.6" opacity="0.85" /><line x1="16" y1="65.0" x2="47.0" y2="65.0" stroke="#f5a524" stroke-width="1.4" opacity="0.6" /><line x1="53.0" y1="50.0" x2="84" y2="50.0" stroke="#f5a524" stroke-width="1.6" opacity="0.85" /></svg>