<svg xmlns="http://www.w3.org/2000/svg" viewBox="0 0 300 200" width="100%" height="100%" preserveAspectRatio="xMidYMid meet" fill="none" stroke="#111111" stroke-linecap="round" stroke-linejoin="round" font-family="-apple-system, BlinkMacSystemFont, 'Segoe UI', Roboto, sans-serif"><rect x="10" y="10" width="280" height="180" rx="8" ry="8" fill="#fafafa" stroke="#111111" stroke-width="4"/><line x1="100" y1="10" x2="100" y2="190" stroke="#111111" stroke-width="0.8" stroke-dasharray="2 3" opacity="0.35"/><line x1="200" y1="10" x2="200" y2="190" stroke="#111111" stroke-width="0.8" stroke-dasharray="2 3" opacity="0.35"/><line x1="10" y1="100" x2="290" y2="100" stroke="#111111" stroke-width="0.8" stroke-dasharray="2 3" opacity="0.35"/><rect x="22" y="22" width="256" height="156" rx="3" fill="#1a6c3a" stroke="#111111" stroke-width="1.6"/><circle cx="27" cy="27" r="2" fill="#ffffff" stroke="#111111" stroke-width="0.6"/><circle cx="273" cy="27" r="2" fill="#ffffff" stroke="#111111" stroke-width="0.6"/><circle cx="27" cy="173" r="2" fill="#ffffff" stroke="#111111" stroke-width="0.6"/><circle cx="273" cy="173" r="2" fill="#ffffff" stroke="#111111" stroke-width="0.6"/><rect x="128.0" y="82.0" width="44" height="36" rx="2" fill="#111111" stroke="#111111" stroke-width="1"/><text x="150.0" y="104.0" text-anchor="middle" font-size="9" font-weight="700" fill="#fff" stroke="none">ESP32</text><line x1="128.0" y1="86.0" x2="124.0" y2="86.0" stroke="#111111" stroke-width="1"/><line x1="172.0" y1="86.0" x2="176.0" y2="86.0" stroke="#111111" stroke-width="1"/><line x1="128.0" y1="90.0" x2="124.0" y2="90.0" stroke="#111111" stroke-width="1"/><line x1="172.0" y1="90.0" x2="176.0" y2="90.0" stroke="#111111" stroke-width="1"/><line x1="128.0" y1="94.0" x2="124.0" y2="94.0" stroke="#111111" stroke-width="1"/><line x1="172.0" y1="94.0" x2="176.0" y2="94.0" stroke="#111111" stroke-width="1"/><line x1="128.0" y1="98.0" x2="124.0" y2="98.0" stroke="#111111" stroke-width="1"/><line x1="172.0" y1="98.0" x2="176.0" y2="98.0" stroke="#111111" stroke-width="1"/><line x1="128.0" y1="102.0" x2="124.0" y2="102.0" stroke="#111111" stroke-width="1"/><line x1="172.0" y1="102.0" x2="176.0" y2="102.0" stroke="#111111" stroke-width="1"/><line x1="128.0" y1="106.0" x2="124.0" y2="106.0" stroke="#111111" stroke-width="1"/><line x1="172.0" y1="106.0" x2="176.0" y2="106.0" stroke="#111111" stroke-width="1"/><line x1="128.0" y1="110.0" x2="124.0" y2="110.0" stroke="#111111" stroke-width="1"/><line x1="172.0" y1="110.0" x2="176.0" y2="110.0" stroke="#111111" stroke-width="1"/><line x1="128.0" y1="114.0" x2="124.0" y2="114.0" stroke="#111111" stroke-width="1"/><line x1="172.0" y1="114.0" x2="176.0" y2="114.0" stroke="#111111" stroke-width="1"/><rect x="28" y="93.0" width="14" height="14" rx="3" fill="#444444" stroke="#111111" stroke-width="1.2"/><rect x="260" y="73.0" width="14" height="6" fill="#000"/><text x="267" y="78.0" text-anchor="middle" font-size="6" font-weight="700" fill="#0f0" stroke="none">M1</text><rect x="260" y="89.0" width="14" height="6" fill="#000"/><text x="267" y="94.0" text-anchor="middle" font-size="6" font-weight="700" fill="#0f0" stroke="none">M2</text><rect x="260" y="105.0" width="14" height="6" fill="#000"/><text x="267" y="110.0" text-anchor="middle" font-size="6" font-weight="700" fill="#0f0" stroke="none">M3</text><rect x="260" y="121.0" width="14" height="6" fill="#000"/><text x="267" y="126.0" text-anchor="middle" font-size="6" font-weight="700" fill="#0f0" stroke="none">M4</text><circle cx="28" cy="32" r="2.5" fill="#3cce4e" stroke="#111111" stroke-width="0.6"/><circle cx="36" cy="32" r="2.5" fill="#f5a524" stroke="#111111" stroke-width="0.6"/><text x="150.0" y="183" text-anchor="middle" font-size="8" font-weight="600" fill="#dff5e3" stroke="none">UC2 Controller</text></svg>