<svg width="766" height="385" xmlns="http://www.w3.org/2000/svg" xmlns:xlink="http://www.w3.org/1999/xlink" xml:space="preserve" overflow="hidden"><g transform="translate(-1443 -944)"><g><rect x="0" y="0" width="178" height="485" stroke="#000000" stroke-width="4.58333" stroke-linecap="butt" stroke-linejoin="miter" stroke-miterlimit="8" stroke-opacity="1" fill="#000000" fill-opacity="1" transform="matrix(-6.12323e-17 -1 -1 6.12323e-17 1966.5 1281.5)"/><path d="M245 179.289C180.4 183.967 115.8 188.644 76.6311 179.289 37.462 169.933 21.6768 145.958 9.98473 123.153-1.70739 100.348-3.4613 62.3402 6.47727 42.4592 16.4158 22.5781 44.4769 9.12921 69.6154 3.86635 94.7539-1.3965 135.092-3.15079 157.308 10.8831 179.523 24.9171 202.323 55.9085 202.908 88.0692 203.492 120.23 188.293 174.026 160.816 203.848 133.339 233.669 85.6923 250.334 38.0462 267" stroke="#000000" stroke-width="10.3125" stroke-linecap="butt" stroke-linejoin="miter" stroke-miterlimit="8" stroke-opacity="1" fill="none" fill-rule="evenodd" transform="matrix(-1 0 0 1 2200 951)"/><rect x="0" y="0" width="167" height="87" stroke="#000000" stroke-width="4.58333" stroke-linecap="butt" stroke-linejoin="miter" stroke-miterlimit="8" stroke-opacity="1" fill="#000000" fill-opacity="1" transform="matrix(-6.12323e-17 -1 -1 6.12323e-17 1629.5 1218.5)"/><rect x="1575.5" y="965.5" width="16.0001" height="168" stroke="#000000" stroke-width="4.58333" stroke-linecap="butt" stroke-linejoin="miter" stroke-miterlimit="8" stroke-opacity="1" fill="#000000" fill-opacity="1"/></g></g></svg>