<svg xmlns="http://www.w3.org/2000/svg" viewBox="0 0 200 200" width="100%" height="100%" preserveAspectRatio="xMidYMid meet" fill="none" stroke="#111111" stroke-linecap="round" stroke-linejoin="round" font-family="-apple-system, BlinkMacSystemFont, 'Segoe UI', Roboto, sans-serif"><rect x="10" y="10" width="180" height="180" rx="8" ry="8" fill="#fafafa" stroke="#111111" stroke-width="4"/><line x1="100" y1="10" x2="100" y2="190" stroke="#111111" stroke-width="0.8" stroke-dasharray="2 3" opacity="0.35"/><line x1="10" y1="100" x2="190" y2="100" stroke="#111111" stroke-width="0.8" stroke-dasharray="2 3" opacity="0.35"/><rect x="20" y="20" width="160" height="160" rx="3" fill="#1a6c3a" stroke="#111111" stroke-width="1.6"/><circle cx="25" cy="25" r="2" fill="#ffffff" stroke="#111111" stroke-width="0.6"/><circle cx="175" cy="25" r="2" fill="#ffffff" stroke="#111111" stroke-width="0.6"/><circle cx="25" cy="175" r="2" fill="#ffffff" stroke="#111111" stroke-width="0.6"/><circle cx="175" cy="175" r="2" fill="#ffffff" stroke="#111111" stroke-width="0.6"/><rect x="82.0" y="78.0" width="36" height="28" rx="1.5" fill="#111111" stroke="#111111" stroke-width="1"/><text x="100.0" y="94.0" text-anchor="middle" font-size="8" font-weight="700" fill="#fff" stroke="none">MCU</text><circle cx="28" cy="124.0" r="6" fill="#222" stroke="#111111" stroke-width="1"/><circle cx="28" cy="124.0" r="3" fill="#444444" stroke="none"/><circle cx="40" cy="124.0" r="6" fill="#222" stroke="#111111" stroke-width="1"/><circle cx="40" cy="124.0" r="3" fill="#444444" stroke="none"/><rect x="168" y="28" width="10" height="6" fill="#000"/><rect x="168" y="36" width="10" height="6" fill="#000"/><rect x="168" y="44" width="10" height="6" fill="#000"/><rect x="168" y="52" width="10" height="6" fill="#000"/><rect x="168" y="60" width="10" height="6" fill="#000"/><rect x="168" y="68" width="10" height="6" fill="#000"/><text x="172" y="180" text-anchor="middle" font-size="10" font-weight="700" fill="#dff5e3" stroke="none">v3</text></svg>