<svg xmlns="http://www.w3.org/2000/svg" viewBox="0 0 100 100" width="100%" height="100%" preserveAspectRatio="xMidYMid meet" fill="none" stroke="#111111" stroke-linecap="round" stroke-linejoin="round" font-family="-apple-system, BlinkMacSystemFont, 'Segoe UI', Roboto, sans-serif"><rect x="10" y="10" width="80" height="80" rx="8" ry="8" fill="#fafafa" stroke="#111111" stroke-width="4"/><line x1="14" y1="50.0" x2="86" y2="50.0" stroke="#444444" stroke-width="1" stroke-dasharray="6 4" opacity="0.55"/><rect x="20" y="28.0" width="22" height="44" rx="2" fill="#444444" stroke="#111111" stroke-width="1.6"/><line x1="44" y1="38.0" x2="48" y2="62.0" stroke="#111111" stroke-width="2.4"/><line x1="45.0" y1="44.0" x2="41.05442430467143" y2="44.65759594922143" stroke="#111111" stroke-width="1.2"/><line x1="46.0" y1="50.0" x2="42.05442430467143" y2="50.65759594922143" stroke="#111111" stroke-width="1.2"/><line x1="47.0" y1="56.0" x2="43.05442430467143" y2="56.65759594922143" stroke="#111111" stroke-width="1.2"/><rect x="62.0" y="28.0" width="22" height="14" rx="2" fill="#444444" stroke="#111111" stroke-width="1.6"/><line x1="68.0" y1="44.0" x2="82.0" y2="56.0" stroke="#111111" stroke-width="2.4"/><line x1="71.5" y1="47.0" x2="68.89683450617612" y2="50.037026409461184" stroke="#111111" stroke-width="1.2"/><line x1="75.0" y1="50.0" x2="72.39683450617612" y2="53.037026409461184" stroke="#111111" stroke-width="1.2"/><line x1="78.5" y1="53.0" x2="75.89683450617612" y2="56.037026409461184" stroke="#111111" stroke-width="1.2"/><line x1="14" y1="50.0" x2="44" y2="50.0" stroke="#dc3545" stroke-width="1.6" opacity="0.85" /><line x1="48" y1="50.0" x2="72.0" y2="50.0" stroke="#dc3545" stroke-width="1.6" opacity="0.85" /><line x1="75.0" y1="50.0" x2="84" y2="62.0" stroke="#dc3545" stroke-width="1.6" opacity="0.85" /><line x1="75.0" y1="50.0" x2="84" y2="38.0" stroke="#dc3545" stroke-width="1.4" opacity="0.5" /><text x="78" y="28" text-anchor="middle" font-size="10" font-weight="700" fill="#111111" stroke="none">XY</text></svg>