<svg xmlns="http://www.w3.org/2000/svg" viewBox="0 0 200 100" width="100%" height="100%" preserveAspectRatio="xMidYMid meet" fill="none" stroke="#111111" stroke-linecap="round" stroke-linejoin="round" font-family="-apple-system, BlinkMacSystemFont, 'Segoe UI', Roboto, sans-serif"><rect x="10" y="10" width="180" height="80" rx="8" ry="8" fill="#fafafa" stroke="#111111" stroke-width="4"/><line x1="100" y1="10" x2="100" y2="90" stroke="#111111" stroke-width="0.8" stroke-dasharray="2 3" opacity="0.35"/><path d="M 34 28.0 L 166 28.0 A 24 22 0 0 1 178 50.0 A 24 22 0 0 1 166 72.0 L 34 72.0 A 24 22 0 0 1 22 50.0 A 24 22 0 0 1 34 28.0 Z" fill="#444444" stroke="#111111" stroke-width="2"/><circle cx="48" cy="56.0" r="9" fill="#111111" stroke="#111111" stroke-width="1"/><circle cx="48" cy="56.0" r="5" fill="#444444" stroke="none"/><circle cx="152" cy="56.0" r="9" fill="#111111" stroke="#111111" stroke-width="1"/><circle cx="152" cy="56.0" r="5" fill="#444444" stroke="none"/><rect x="26" y="40.0" width="12" height="4" fill="#111111"/><rect x="30" y="36.0" width="4" height="12" fill="#111111"/><circle cx="161" cy="42.0" r="3" fill="#1e6dd1" stroke="#111111" stroke-width="0.6"/><circle cx="175" cy="42.0" r="3" fill="#dc3545" stroke="#111111" stroke-width="0.6"/><circle cx="168" cy="35.0" r="3" fill="#f5a524" stroke="#111111" stroke-width="0.6"/><circle cx="168" cy="49.0" r="3" fill="#3cce4e" stroke="#111111" stroke-width="0.6"/></svg>