<svg xmlns="http://www.w3.org/2000/svg" viewBox="0 0 300 100" width="100%" height="100%" preserveAspectRatio="xMidYMid meet" fill="none" stroke="#111111" stroke-linecap="round" stroke-linejoin="round" font-family="-apple-system, BlinkMacSystemFont, 'Segoe UI', Roboto, sans-serif"><rect x="10" y="10" width="280" height="80" rx="8" ry="8" fill="#fafafa" stroke="#111111" stroke-width="4"/><line x1="100" y1="10" x2="100" y2="90" stroke="#111111" stroke-width="0.8" stroke-dasharray="2 3" opacity="0.35"/><line x1="200" y1="10" x2="200" y2="90" stroke="#111111" stroke-width="0.8" stroke-dasharray="2 3" opacity="0.35"/><line x1="14" y1="50.0" x2="286" y2="50.0" stroke="#444444" stroke-width="1" stroke-dasharray="6 4" opacity="0.55"/><rect x="20" y="28.0" width="36" height="20" rx="2" fill="#444444" stroke="#111111" stroke-width="1.4"/><text x="38" y="41.0" text-anchor="middle" font-size="8" font-weight="700" fill="#fff" stroke="none">LASER</text><rect x="244" y="28.0" width="36" height="20" rx="2" fill="#444444" stroke="#111111" stroke-width="1.4"/><text x="262" y="41.0" text-anchor="middle" font-size="10" font-weight="700" fill="#fff" stroke="none">PD</text><line x1="40" y1="72.0" x2="260" y2="72.0" stroke="#111111" stroke-width="2.4"/><line x1="64.44444444444444" y1="72.0" x2="64.44444444444444" y2="76.0" stroke="#111111" stroke-width="1.2"/><line x1="88.88888888888889" y1="72.0" x2="88.88888888888889" y2="76.0" stroke="#111111" stroke-width="1.2"/><line x1="113.33333333333333" y1="72.0" x2="113.33333333333333" y2="76.0" stroke="#111111" stroke-width="1.2"/><line x1="137.77777777777777" y1="72.0" x2="137.77777777777777" y2="76.0" stroke="#111111" stroke-width="1.2"/><line x1="162.22222222222223" y1="72.0" x2="162.22222222222223" y2="76.0" stroke="#111111" stroke-width="1.2"/><line x1="186.66666666666666" y1="72.0" x2="186.66666666666666" y2="76.0" stroke="#111111" stroke-width="1.2"/><line x1="211.11111111111111" y1="72.0" x2="211.11111111111111" y2="76.0" stroke="#111111" stroke-width="1.2"/><line x1="235.55555555555554" y1="72.0" x2="235.55555555555554" y2="76.0" stroke="#111111" stroke-width="1.2"/><line x1="38" y1="47.0" x2="150.0" y2="72.0" stroke="#dc3545" stroke-width="1.6" opacity="0.85" /><line x1="150.0" y1="72.0" x2="262" y2="47.0" stroke="#dc3545" stroke-width="1.6" opacity="0.85" /><text x="150.0" y="84.0" text-anchor="middle" font-size="8" font-weight="600" fill="#444444" stroke="none">Sample</text></svg>