<svg xmlns="http://www.w3.org/2000/svg" viewBox="0 0 100 100" width="100%" height="100%" preserveAspectRatio="xMidYMid meet" fill="none" stroke="#111111" stroke-linecap="round" stroke-linejoin="round" font-family="-apple-system, BlinkMacSystemFont, 'Segoe UI', Roboto, sans-serif"><rect x="10" y="10" width="80" height="80" rx="8" ry="8" fill="#fafafa" stroke="#111111" stroke-width="4"/><circle cx="50.0" cy="50.0" r="32" fill="#a1a1a1" stroke="#111111" stroke-width="2"/><path d="M 50.0 18.0 A 32 32 0 0 1 77.71281292110203 34.0 L 53.914689807001075 41.89597607882591 Z" fill="#444444" stroke="#111111" stroke-width="1"/><path d="M 77.71281292110203 34.0 A 32 32 0 0 1 77.71281292110204 66.0 L 58.97563549211408 49.338208860211886 Z" fill="#444444" stroke="#111111" stroke-width="1"/><path d="M 77.71281292110204 66.0 A 32 32 0 0 1 50.0 82.0 L 55.06094568511301 57.442232781385975 Z" fill="#444444" stroke="#111111" stroke-width="1"/><path d="M 50.0 82.0 A 32 32 0 0 1 22.28718707889797 66.00000000000001 L 46.085310192998925 58.10402392117409 Z" fill="#444444" stroke="#111111" stroke-width="1"/><path d="M 22.28718707889797 66.00000000000001 A 32 32 0 0 1 22.287187078897965 34.0 L 41.02436450788592 50.66179113978812 Z" fill="#444444" stroke="#111111" stroke-width="1"/><path d="M 22.287187078897965 34.0 A 32 32 0 0 1 49.99999999999999 18.0 L 44.939054314886995 42.557767218614025 Z" fill="#444444" stroke="#111111" stroke-width="1"/><circle cx="50.0" cy="50.0" r="7" fill="#ffffff" stroke="none"/><rect x="80.0" y="48.0" width="14" height="4" rx="1" fill="#444444" stroke="#111111" stroke-width="1"/><circle cx="94.0" cy="50.0" r="3" fill="#444444" stroke="#111111" stroke-width="1"/></svg>