<svg width="408" height="408" xmlns="http://www.w3.org/2000/svg" xmlns:xlink="http://www.w3.org/1999/xlink" xml:space="preserve" overflow="hidden"><g transform="translate(-1384 -481)"><g><rect x="1539" y="556" width="100" height="259" stroke="#000000" stroke-width="27.5" stroke-linecap="butt" stroke-linejoin="miter" stroke-miterlimit="8" stroke-opacity="1" fill="none"/><rect x="1400" y="497" width="378" height="377" stroke="#000000" stroke-width="27.5" stroke-linecap="butt" stroke-linejoin="miter" stroke-miterlimit="8" stroke-opacity="1" fill="none"/><path d="M1571.5 690.5C1571.5 680.559 1579.56 672.5 1589.5 672.5 1599.44 672.5 1607.5 680.559 1607.5 690.5 1607.5 700.441 1599.44 708.5 1589.5 708.5 1579.56 708.5 1571.5 700.441 1571.5 690.5Z" stroke="#000000" stroke-width="4.58333" stroke-linecap="butt" stroke-linejoin="miter" stroke-miterlimit="8" stroke-opacity="1" fill="#000000" fill-rule="evenodd" fill-opacity="1"/><path d="M1612.5 689.5 1603.8 693.041 1603.8 685.959ZM1605.76 673.236 1602.11 681.894 1597.11 676.887ZM1589.5 666.5 1593.04 675.202 1585.96 675.202ZM1573.24 673.236 1581.89 676.887 1576.89 681.894ZM1566.5 689.5 1575.2 685.959 1575.2 693.041ZM1573.24 705.762 1576.89 697.106 1581.89 702.114ZM1589.5 712.5 1585.96 703.798 1593.04 703.798ZM1605.76 705.762 1597.11 702.114 1602.11 697.106ZM1577.16 689.5C1577.16 682.687 1582.69 677.164 1589.5 677.164 1596.31 677.164 1601.84 682.687 1601.84 689.5 1601.84 696.313 1596.31 701.836 1589.5 701.836 1582.69 701.836 1577.16 696.313 1577.16 689.5Z" stroke="#000000" stroke-width="4.58333" stroke-linecap="butt" stroke-linejoin="miter" stroke-miterlimit="8" stroke-opacity="1" fill="#000000" fill-rule="evenodd" fill-opacity="1"/><rect x="1557.5" y="524.5" width="63.9999" height="37.9998" stroke="#000000" stroke-width="4.58333" stroke-linecap="butt" stroke-linejoin="miter" stroke-miterlimit="8" stroke-opacity="1" fill="#000000" fill-opacity="1"/><rect x="1642" y="615" width="23" height="151" stroke="#000000" stroke-width="27.5" stroke-linecap="butt" stroke-linejoin="miter" stroke-miterlimit="8" stroke-opacity="1" fill="none"/></g></g></svg>