<svg xmlns="http://www.w3.org/2000/svg" viewBox="0 0 100 100" width="100%" height="100%" preserveAspectRatio="xMidYMid meet" fill="none" stroke="#111111" stroke-linecap="round" stroke-linejoin="round" font-family="-apple-system, BlinkMacSystemFont, 'Segoe UI', Roboto, sans-serif"><rect x="10" y="10" width="80" height="80" rx="8" ry="8" fill="#fafafa" stroke="#111111" stroke-width="4"/><line x1="14" y1="50.0" x2="86" y2="50.0" stroke="#444444" stroke-width="1" stroke-dasharray="6 4" opacity="0.55"/><rect x="28" y="28.0" width="50" height="44" rx="4" fill="#444444" stroke="#111111" stroke-width="2"/><rect x="16" y="38.0" width="14" height="24" rx="2" fill="#ffffff" stroke="#111111" stroke-width="1.6"/><circle cx="20" cy="50.0" r="5" fill="#a5c4ec" stroke="#111111" stroke-width="1.4"/><circle cx="20" cy="50.0" r="2" fill="#111111" stroke="none"/><rect x="38" y="38.0" width="8" height="8" fill="#a1a1a1" stroke="none"/><rect x="38" y="50.0" width="8" height="8" fill="#a1a1a1" stroke="none"/><rect x="50" y="38.0" width="8" height="8" fill="#a1a1a1" stroke="none"/><rect x="50" y="50.0" width="8" height="8" fill="#a1a1a1" stroke="none"/><rect x="62" y="38.0" width="8" height="8" fill="#a1a1a1" stroke="none"/><rect x="62" y="50.0" width="8" height="8" fill="#a1a1a1" stroke="none"/><text x="63" y="67.0" text-anchor="middle" font-size="7" font-weight="700" fill="#fff" stroke="none">CAM</text><path d="M 20 45.0 L 8 28.0 L 8 72.0 L 20 55.0 Z" fill="#fad291" stroke="#111111" stroke-width="1" opacity="0.6"/></svg>