<svg width="408" height="407" xmlns="http://www.w3.org/2000/svg" xmlns:xlink="http://www.w3.org/1999/xlink" xml:space="preserve" overflow="hidden"><g transform="translate(-1338 -1485)"><g><rect x="1354" y="1499" width="377" height="377" stroke="#000000" stroke-width="27.5" stroke-linecap="butt" stroke-linejoin="miter" stroke-miterlimit="8" stroke-opacity="1" fill="none"/><path d="M1585.34 1637.5 1603.5 1655.66 1603.5 1681.34 1585.34 1699.5 1500.66 1699.5 1482.5 1681.34 1482.5 1655.66 1500.66 1637.5Z" stroke="#6C4F00" stroke-width="9.16667" stroke-linecap="butt" stroke-linejoin="round" stroke-miterlimit="10" stroke-opacity="1" fill="#FFC000" fill-rule="evenodd" fill-opacity="1"/><path d="M1571.9 1722.32 1581.61 1722.32 1588.47 1729.19 1588.47 1738.9 1512.95 1814.41 1503.25 1814.41 1496.38 1807.55 1496.38 1797.84Z" stroke="#6C4F00" stroke-width="9.16667" stroke-linecap="butt" stroke-linejoin="round" stroke-miterlimit="10" stroke-opacity="1" fill="#00B0F0" fill-rule="evenodd" fill-opacity="1"/><path d="M1640.41 1767.85 1643.9 1773.53 1650.91 1785.6 1656.93 1796.95 1659.52 1802.38 1661.71 1807.5 1663.51 1812.37 1664.85 1816.97 1665.71 1821.31 1665.99 1825.42C1666.01 1825.69 1666 1825.97 1665.96 1826.24L1665.59 1829.32C1665.55 1829.69 1665.46 1830.05 1665.32 1830.4L1664.33 1833.01C1664.17 1833.43 1663.95 1833.83 1663.67 1834.19L1662.02 1836.3C1661.76 1836.64 1661.44 1836.94 1661.09 1837.2L1658.83 1838.84C1658.54 1839.04 1658.24 1839.22 1657.92 1839.35L1655.07 1840.55C1654.83 1840.65 1654.59 1840.74 1654.34 1840.79L1650.95 1841.59 1646.5 1842.1 1641.75 1842.2 1636.68 1841.96 1631.31 1841.42 1619.84 1839.62 1603.56 1836.11 1605.5 1827.15 1621.27 1830.56 1632.24 1832.3 1637.14 1832.8 1641.59 1833.04 1645.52 1832.99 1648.85 1832.67 1652.24 1831.87 1651.5 1832.11 1654.35 1830.91 1653.45 1831.42 1655.72 1829.77 1654.79 1830.67 1656.43 1828.56 1655.77 1829.74 1656.76 1827.13 1656.49 1828.22 1656.86 1825.14 1656.84 1825.96 1656.7 1823.04 1656.05 1819.53 1654.9 1815.53 1653.29 1811.11 1651.24 1806.31 1648.84 1801.25 1642.98 1790.2 1636.1 1778.34 1632.6 1772.66ZM1627.22 1781.38 1624.46 1750.76 1650.61 1766.93ZM1605.77 1846.07 1582.25 1826.27 1612.2 1819.33Z" fill="#172C51" fill-rule="nonzero" fill-opacity="1"/><path d="M1648.97 1636.43 1658.42 1627.26 1662.5 1623.59 1666.38 1620.28 1670.13 1617.3 1673.73 1614.7 1677.19 1612.52 1680.52 1610.8 1683.78 1609.58C1684.04 1609.49 1684.32 1609.42 1684.6 1609.37L1687.04 1608.97C1687.45 1608.91 1687.86 1608.89 1688.27 1608.94L1690.41 1609.17C1690.95 1609.23 1691.48 1609.38 1691.96 1609.62L1693.79 1610.53C1694.39 1610.83 1694.91 1611.25 1695.33 1611.77L1696.85 1613.68C1697.13 1614.03 1697.35 1614.41 1697.51 1614.81L1698.78 1617.91C1698.86 1618.12 1698.93 1618.33 1698.99 1618.55L1700 1622.68 1700.85 1628.07 1701.42 1634.04 1701.73 1640.47 1701.81 1647.24 1701.67 1654.19 1700.76 1667.97 1699.98 1674.64 1699.02 1680.8 1697.85 1686.4 1696.47 1691.3 1694.83 1695.41C1694.72 1695.68 1694.59 1695.93 1694.43 1696.18L1692.79 1698.71C1692.47 1699.21 1692.06 1699.64 1691.57 1699.98L1689.48 1701.44C1688.98 1701.79 1688.43 1702.03 1687.85 1702.16L1685.07 1702.78C1684.69 1702.87 1684.29 1702.9 1683.9 1702.89L1680.56 1702.76C1680.31 1702.76 1680.07 1702.73 1679.83 1702.68L1676.02 1701.92 1671.41 1700.5 1666.72 1698.66 1654.23 1692.15 1658.48 1684.03 1670.09 1690.13 1674.15 1691.75 1677.83 1692.93 1681.63 1693.69 1680.9 1693.6 1684.24 1693.73 1683.07 1693.83 1685.85 1693.21 1684.22 1693.93 1686.32 1692.47 1685.1 1693.73 1686.73 1691.2 1686.33 1691.97 1687.65 1688.79 1688.88 1684.52 1689.96 1679.37 1690.88 1673.57 1691.61 1667.36 1692.51 1654 1692.65 1647.34 1692.58 1640.91 1692.29 1634.89 1691.79 1629.47 1691.1 1624.87 1690.09 1620.74 1690.29 1621.38 1689.03 1618.27 1689.69 1619.4 1688.16 1617.49 1689.71 1618.74 1687.88 1617.83 1689.43 1618.28 1687.29 1618.05 1688.52 1618.02 1686.07 1618.42 1686.89 1618.21 1684.7 1618.96 1682.07 1620.29 1679.09 1622.14 1675.83 1624.48 1672.33 1627.26 1668.63 1630.41 1664.81 1633.84 1655.36 1643.01ZM1665.14 1646.18 1635.99 1655.95 1645.66 1626.76ZM1653.14 1702.22 1636.77 1676.2 1667.41 1678.72Z" fill="#172C51" fill-rule="nonzero" fill-opacity="1"/><path d="M1354.5 1766.78 1469.6 1766.78 1469.6 1770.22 1354.5 1770.22ZM1465.01 1754.75 1492.51 1768.5 1465.01 1782.25Z" fill="#000000" fill-rule="nonzero" fill-opacity="1"/><path d="M1.71875-5.05809e-06 1.71904 99.7153-1.71846 99.7153-1.71875 5.05809e-06ZM13.7503 95.1319 0.000360892 122.632-13.7497 95.132Z" fill="#000000" fill-rule="nonzero" fill-opacity="1" transform="matrix(1 0 0 -1 1545.5 1637.13)"/></g></g></svg>