<svg xmlns="http://www.w3.org/2000/svg" viewBox="0 0 500 400" width="100%" height="100%" preserveAspectRatio="xMidYMid meet" fill="none" stroke="#111111" stroke-linecap="round" stroke-linejoin="round" font-family="-apple-system, BlinkMacSystemFont, 'Segoe UI', Roboto, sans-serif"><rect x="10" y="10" width="480" height="380" rx="8" ry="8" fill="#fafafa" stroke="#111111" stroke-width="4"/><line x1="100" y1="10" x2="100" y2="390" stroke="#111111" stroke-width="0.8" stroke-dasharray="2 3" opacity="0.35"/><line x1="200" y1="10" x2="200" y2="390" stroke="#111111" stroke-width="0.8" stroke-dasharray="2 3" opacity="0.35"/><line x1="300" y1="10" x2="300" y2="390" stroke="#111111" stroke-width="0.8" stroke-dasharray="2 3" opacity="0.35"/><line x1="400" y1="10" x2="400" y2="390" stroke="#111111" stroke-width="0.8" stroke-dasharray="2 3" opacity="0.35"/><line x1="10" y1="100" x2="490" y2="100" stroke="#111111" stroke-width="0.8" stroke-dasharray="2 3" opacity="0.35"/><line x1="10" y1="200" x2="490" y2="200" stroke="#111111" stroke-width="0.8" stroke-dasharray="2 3" opacity="0.35"/><line x1="10" y1="300" x2="490" y2="300" stroke="#111111" stroke-width="0.8" stroke-dasharray="2 3" opacity="0.35"/><circle cx="100" cy="100" r="3" fill="#ffffff" stroke="#111111" stroke-width="1.4"/><circle cx="100" cy="100" r="1.2" fill="#444444" stroke="none"/><circle cx="100" cy="200" r="3" fill="#ffffff" stroke="#111111" stroke-width="1.4"/><circle cx="100" cy="200" r="1.2" fill="#444444" stroke="none"/><circle cx="100" cy="300" r="3" fill="#ffffff" stroke="#111111" stroke-width="1.4"/><circle cx="100" cy="300" r="1.2" fill="#444444" stroke="none"/><circle cx="200" cy="100" r="3" fill="#ffffff" stroke="#111111" stroke-width="1.4"/><circle cx="200" cy="100" r="1.2" fill="#444444" stroke="none"/><circle cx="200" cy="200" r="3" fill="#ffffff" stroke="#111111" stroke-width="1.4"/><circle cx="200" cy="200" r="1.2" fill="#444444" stroke="none"/><circle cx="200" cy="300" r="3" fill="#ffffff" stroke="#111111" stroke-width="1.4"/><circle cx="200" cy="300" r="1.2" fill="#444444" stroke="none"/><circle cx="300" cy="100" r="3" fill="#ffffff" stroke="#111111" stroke-width="1.4"/><circle cx="300" cy="100" r="1.2" fill="#444444" stroke="none"/><circle cx="300" cy="200" r="3" fill="#ffffff" stroke="#111111" stroke-width="1.4"/><circle cx="300" cy="200" r="1.2" fill="#444444" stroke="none"/><circle cx="300" cy="300" r="3" fill="#ffffff" stroke="#111111" stroke-width="1.4"/><circle cx="300" cy="300" r="1.2" fill="#444444" stroke="none"/><circle cx="400" cy="100" r="3" fill="#ffffff" stroke="#111111" stroke-width="1.4"/><circle cx="400" cy="100" r="1.2" fill="#444444" stroke="none"/><circle cx="400" cy="200" r="3" fill="#ffffff" stroke="#111111" stroke-width="1.4"/><circle cx="400" cy="200" r="1.2" fill="#444444" stroke="none"/><circle cx="400" cy="300" r="3" fill="#ffffff" stroke="#111111" stroke-width="1.4"/><circle cx="400" cy="300" r="1.2" fill="#444444" stroke="none"/><rect x="6" y="6" width="88" height="88" rx="3" fill="none" stroke="#111111" stroke-width="0.6" opacity="0.18"/><rect x="6" y="106" width="88" height="88" rx="3" fill="none" stroke="#111111" stroke-width="0.6" opacity="0.18"/><rect x="6" y="206" width="88" height="88" rx="3" fill="none" stroke="#111111" stroke-width="0.6" opacity="0.18"/><rect x="6" y="306" width="88" height="88" rx="3" fill="none" stroke="#111111" stroke-width="0.6" opacity="0.18"/><rect x="106" y="6" width="88" height="88" rx="3" fill="none" stroke="#111111" stroke-width="0.6" opacity="0.18"/><rect x="106" y="106" width="88" height="88" rx="3" fill="none" stroke="#111111" stroke-width="0.6" opacity="0.18"/><rect x="106" y="206" width="88" height="88" rx="3" fill="none" stroke="#111111" stroke-width="0.6" opacity="0.18"/><rect x="106" y="306" width="88" height="88" rx="3" fill="none" stroke="#111111" stroke-width="0.6" opacity="0.18"/><rect x="206" y="6" width="88" height="88" rx="3" fill="none" stroke="#111111" stroke-width="0.6" opacity="0.18"/><rect x="206" y="106" width="88" height="88" rx="3" fill="none" stroke="#111111" stroke-width="0.6" opacity="0.18"/><rect x="206" y="206" width="88" height="88" rx="3" fill="none" stroke="#111111" stroke-width="0.6" opacity="0.18"/><rect x="206" y="306" width="88" height="88" rx="3" fill="none" stroke="#111111" stroke-width="0.6" opacity="0.18"/><rect x="306" y="6" width="88" height="88" rx="3" fill="none" stroke="#111111" stroke-width="0.6" opacity="0.18"/><rect x="306" y="106" width="88" height="88" rx="3" fill="none" stroke="#111111" stroke-width="0.6" opacity="0.18"/><rect x="306" y="206" width="88" height="88" rx="3" fill="none" stroke="#111111" stroke-width="0.6" opacity="0.18"/><rect x="306" y="306" width="88" height="88" rx="3" fill="none" stroke="#111111" stroke-width="0.6" opacity="0.18"/><rect x="406" y="6" width="88" height="88" rx="3" fill="none" stroke="#111111" stroke-width="0.6" opacity="0.18"/><rect x="406" y="106" width="88" height="88" rx="3" fill="none" stroke="#111111" stroke-width="0.6" opacity="0.18"/><rect x="406" y="206" width="88" height="88" rx="3" fill="none" stroke="#111111" stroke-width="0.6" opacity="0.18"/><rect x="406" y="306" width="88" height="88" rx="3" fill="none" stroke="#111111" stroke-width="0.6" opacity="0.18"/></svg>