<svg xmlns="http://www.w3.org/2000/svg" viewBox="0 0 300 200" width="100%" height="100%" preserveAspectRatio="xMidYMid meet" fill="none" stroke="#111111" stroke-linecap="round" stroke-linejoin="round" font-family="-apple-system, BlinkMacSystemFont, 'Segoe UI', Roboto, sans-serif"><rect x="10" y="10" width="280" height="180" rx="8" ry="8" fill="#fafafa" stroke="#111111" stroke-width="4"/><line x1="100" y1="10" x2="100" y2="190" stroke="#111111" stroke-width="0.8" stroke-dasharray="2 3" opacity="0.35"/><line x1="200" y1="10" x2="200" y2="190" stroke="#111111" stroke-width="0.8" stroke-dasharray="2 3" opacity="0.35"/><line x1="10" y1="100" x2="290" y2="100" stroke="#111111" stroke-width="0.8" stroke-dasharray="2 3" opacity="0.35"/><rect x="28" y="92.0" width="244" height="16" rx="2" fill="#8e8e8e" stroke="#111111" stroke-width="2"/><rect x="142.0" y="28" width="16" height="144" rx="2" fill="#8e8e8e" stroke="#111111" stroke-width="2"/><rect x="128.0" y="78.0" width="44" height="44" rx="3" fill="#444444" stroke="#111111" stroke-width="2"/><circle cx="266" cy="100.0" r="12" fill="#ffffff" stroke="#111111" stroke-width="1.6"/><line x1="275.0" y1="100.0" x2="278.0" y2="100.0" stroke="#111111" stroke-width="0.9"/><line x1="273.28115294937453" y1="105.29006727063226" x2="275.7082039324994" y2="107.05342302750968" stroke="#111111" stroke-width="0.9"/><line x1="268.78115294937453" y1="108.55950864665638" x2="269.7082039324994" y2="111.41267819554184" stroke="#111111" stroke-width="0.9"/><line x1="263.21884705062547" y1="108.55950864665638" x2="262.2917960675006" y2="111.41267819554184" stroke="#111111" stroke-width="0.9"/><line x1="258.71884705062547" y1="105.29006727063226" x2="256.2917960675006" y2="107.05342302750968" stroke="#111111" stroke-width="0.9"/><line x1="257.0" y1="100.0" x2="254.0" y2="100.0" stroke="#111111" stroke-width="0.9"/><line x1="258.71884705062547" y1="94.70993272936774" x2="256.2917960675006" y2="92.94657697249032" stroke="#111111" stroke-width="0.9"/><line x1="263.21884705062547" y1="91.44049135334362" x2="262.2917960675006" y2="88.58732180445816" stroke="#111111" stroke-width="0.9"/><line x1="268.78115294937453" y1="91.44049135334362" x2="269.7082039324994" y2="88.58732180445816" stroke="#111111" stroke-width="0.9"/><line x1="273.28115294937453" y1="94.70993272936774" x2="275.7082039324994" y2="92.94657697249032" stroke="#111111" stroke-width="0.9"/><circle cx="150.0" cy="36" r="12" fill="#ffffff" stroke="#111111" stroke-width="1.6"/><line x1="159.0" y1="36.0" x2="162.0" y2="36.0" stroke="#111111" stroke-width="0.9"/><line x1="157.28115294937453" y1="41.29006727063226" x2="159.70820393249937" y2="43.05342302750968" stroke="#111111" stroke-width="0.9"/><line x1="152.78115294937453" y1="44.55950864665638" x2="153.70820393249937" y2="47.412678195541844" stroke="#111111" stroke-width="0.9"/><line x1="147.21884705062547" y1="44.55950864665638" x2="146.29179606750063" y2="47.412678195541844" stroke="#111111" stroke-width="0.9"/><line x1="142.71884705062547" y1="41.29006727063226" x2="140.29179606750063" y2="43.05342302750968" stroke="#111111" stroke-width="0.9"/><line x1="141.0" y1="36.0" x2="138.0" y2="36.0" stroke="#111111" stroke-width="0.9"/><line x1="142.71884705062547" y1="30.709932729367743" x2="140.29179606750063" y2="28.946576972490323" stroke="#111111" stroke-width="0.9"/><line x1="147.21884705062547" y1="27.440491353343617" x2="146.29179606750063" y2="24.587321804458156" stroke="#111111" stroke-width="0.9"/><line x1="152.78115294937453" y1="27.440491353343617" x2="153.70820393249937" y2="24.587321804458156" stroke="#111111" stroke-width="0.9"/><line x1="157.28115294937453" y1="30.70993272936774" x2="159.70820393249937" y2="28.94657697249032" stroke="#111111" stroke-width="0.9"/><text x="278" y="104.0" text-anchor="middle" font-size="11" font-weight="800" fill="#111111" stroke="none">X</text><text x="22" y="32" text-anchor="middle" font-size="11" font-weight="800" fill="#111111" stroke="none">Y</text></svg>