<svg xmlns="http://www.w3.org/2000/svg" viewBox="0 0 100 100" width="100%" height="100%" preserveAspectRatio="xMidYMid meet" fill="none" stroke="#111111" stroke-linecap="round" stroke-linejoin="round" font-family="-apple-system, BlinkMacSystemFont, 'Segoe UI', Roboto, sans-serif"><rect x="10" y="10" width="80" height="80" rx="8" ry="8" fill="#fafafa" stroke="#111111" stroke-width="4"/><rect x="18" y="18" width="64" height="64" rx="3" fill="#a1a1a1" stroke="#111111" stroke-width="1.6"/><circle cx="50.0" cy="50.0" r="14" fill="#ffffff" stroke="#111111" stroke-width="1.6"/><circle cx="50.0" cy="50.0" r="3" fill="#444444" stroke="none"/><circle cx="50.0" cy="24" r="5" fill="#ffffff" stroke="#111111" stroke-width="1.4"/><line x1="54.0" y1="24.0" x2="55.5" y2="24.0" stroke="#111111" stroke-width="0.7"/><line x1="52.82842712474619" y1="26.82842712474619" x2="53.889087296526014" y2="27.88908729652601" stroke="#111111" stroke-width="0.7"/><line x1="50.0" y1="28.0" x2="50.0" y2="29.5" stroke="#111111" stroke-width="0.7"/><line x1="47.17157287525381" y1="26.82842712474619" x2="46.110912703473986" y2="27.88908729652601" stroke="#111111" stroke-width="0.7"/><line x1="46.0" y1="24.0" x2="44.5" y2="24.0" stroke="#111111" stroke-width="0.7"/><line x1="47.17157287525381" y1="21.17157287525381" x2="46.110912703473986" y2="20.11091270347399" stroke="#111111" stroke-width="0.7"/><line x1="50.0" y1="20.0" x2="50.0" y2="18.5" stroke="#111111" stroke-width="0.7"/><line x1="52.82842712474619" y1="21.17157287525381" x2="53.88908729652601" y2="20.11091270347399" stroke="#111111" stroke-width="0.7"/><circle cx="76" cy="50.0" r="5" fill="#ffffff" stroke="#111111" stroke-width="1.4"/><line x1="80.0" y1="50.0" x2="81.5" y2="50.0" stroke="#111111" stroke-width="0.7"/><line x1="78.82842712474618" y1="52.82842712474619" x2="79.88908729652601" y2="53.889087296526014" stroke="#111111" stroke-width="0.7"/><line x1="76.0" y1="54.0" x2="76.0" y2="55.5" stroke="#111111" stroke-width="0.7"/><line x1="73.17157287525382" y1="52.82842712474619" x2="72.11091270347399" y2="53.889087296526014" stroke="#111111" stroke-width="0.7"/><line x1="72.0" y1="50.0" x2="70.5" y2="50.0" stroke="#111111" stroke-width="0.7"/><line x1="73.17157287525382" y1="47.17157287525381" x2="72.11091270347399" y2="46.110912703473986" stroke="#111111" stroke-width="0.7"/><line x1="76.0" y1="46.0" x2="76.0" y2="44.5" stroke="#111111" stroke-width="0.7"/><line x1="78.82842712474618" y1="47.17157287525381" x2="79.88908729652601" y2="46.110912703473986" stroke="#111111" stroke-width="0.7"/><circle cx="26" cy="26" r="2.5" fill="#ffffff" stroke="#111111" stroke-width="1"/><circle cx="74" cy="26" r="2.5" fill="#ffffff" stroke="#111111" stroke-width="1"/><circle cx="26" cy="74" r="2.5" fill="#ffffff" stroke="#111111" stroke-width="1"/><circle cx="74" cy="74" r="2.5" fill="#ffffff" stroke="#111111" stroke-width="1"/></svg>