<svg xmlns="http://www.w3.org/2000/svg" viewBox="0 0 200 200" width="100%" height="100%" preserveAspectRatio="xMidYMid meet" fill="none" stroke="#111111" stroke-linecap="round" stroke-linejoin="round" font-family="-apple-system, BlinkMacSystemFont, 'Segoe UI', Roboto, sans-serif"><rect x="10" y="10" width="180" height="180" rx="8" ry="8" fill="#fafafa" stroke="#111111" stroke-width="4"/><line x1="100" y1="10" x2="100" y2="190" stroke="#111111" stroke-width="0.8" stroke-dasharray="2 3" opacity="0.35"/><line x1="10" y1="100" x2="190" y2="100" stroke="#111111" stroke-width="0.8" stroke-dasharray="2 3" opacity="0.35"/><line x1="14" y1="100.0" x2="186" y2="100.0" stroke="#444444" stroke-width="1" stroke-dasharray="6 4" opacity="0.55"/><circle cx="100.0" cy="100.0" r="55" fill="#8e8e8e" stroke="#111111" stroke-width="2.2"/><circle cx="100.0" cy="100.0" r="14" fill="#ffffff" stroke="#111111" stroke-width="1.6"/><circle cx="100.0" cy="62.0" r="11" fill="#202c3a" stroke="#111111" stroke-width="1.4"/><text x="100.0" y="65.0" text-anchor="middle" font-size="7" font-weight="800" fill="#fff" stroke="none">4×</text><circle cx="138.0" cy="100.0" r="11" fill="#202c3a" stroke="#111111" stroke-width="1.4"/><text x="138.0" y="103.0" text-anchor="middle" font-size="7" font-weight="800" fill="#fff" stroke="none">10×</text><circle cx="100.0" cy="138.0" r="11" fill="#202c3a" stroke="#111111" stroke-width="1.4"/><text x="100.0" y="141.0" text-anchor="middle" font-size="7" font-weight="800" fill="#fff" stroke="none">20×</text><circle cx="62.0" cy="100.0" r="11" fill="#202c3a" stroke="#111111" stroke-width="1.4"/><text x="62.0" y="103.0" text-anchor="middle" font-size="7" font-weight="800" fill="#fff" stroke="none">40×</text><path d="M 70.0 50.0 a 50 50 0 0 1 60 0" fill="none" stroke="#111111" stroke-width="1.6"/><path d="M 130.0 50.0 l -6 -3 l 3 8 z" fill="#111111" stroke="none"/><rect x="162" y="162" width="20" height="20" rx="2" fill="#444444" stroke="#111111" stroke-width="1.4"/><text x="172" y="177" text-anchor="middle" font-size="10" font-weight="800" fill="#fff" stroke="none">M</text></svg>