<svg xmlns="http://www.w3.org/2000/svg" viewBox="0 0 300 100" width="100%" height="100%" preserveAspectRatio="xMidYMid meet" fill="none" stroke="#111111" stroke-linecap="round" stroke-linejoin="round" font-family="-apple-system, BlinkMacSystemFont, 'Segoe UI', Roboto, sans-serif"><rect x="10" y="10" width="280" height="80" rx="8" ry="8" fill="#fafafa" stroke="#111111" stroke-width="4"/><line x1="100" y1="10" x2="100" y2="90" stroke="#111111" stroke-width="0.8" stroke-dasharray="2 3" opacity="0.35"/><line x1="200" y1="10" x2="200" y2="90" stroke="#111111" stroke-width="0.8" stroke-dasharray="2 3" opacity="0.35"/><line x1="14" y1="50.0" x2="286" y2="50.0" stroke="#444444" stroke-width="1" stroke-dasharray="6 4" opacity="0.55"/><rect x="24" y="20.0" width="14" height="16" rx="2" fill="#444444" stroke="#111111" stroke-width="1.2"/><path d="M 38 22.0 a 8 8 0 0 1 0 12 Z" fill="#8100c7" stroke="#111111" stroke-width="1"/><line x1="46" y1="28.0" x2="150.0" y2="50.0" stroke="#8100c7" stroke-width="1.4" opacity="0.85" /><rect x="24" y="42.0" width="14" height="16" rx="2" fill="#444444" stroke="#111111" stroke-width="1.2"/><path d="M 38 44.0 a 8 8 0 0 1 0 12 Z" fill="#5dff00" stroke="#111111" stroke-width="1"/><line x1="46" y1="50.0" x2="150.0" y2="50.0" stroke="#5dff00" stroke-width="1.4" opacity="0.85" /><rect x="24" y="64.0" width="14" height="16" rx="2" fill="#444444" stroke="#111111" stroke-width="1.2"/><path d="M 38 66.0 a 8 8 0 0 1 0 12 Z" fill="#ff4e00" stroke="#111111" stroke-width="1"/><line x1="46" y1="72.0" x2="150.0" y2="50.0" stroke="#ff4e00" stroke-width="1.4" opacity="0.85" /><circle cx="150.0" cy="50.0" r="8" fill="#ffffff" stroke="#111111" stroke-width="1.6"/><circle cx="150.0" cy="50.0" r="3" fill="#111111" stroke="none"/><path d="M 158.0 50.0 Q 210.0 35.0 284 50.0" fill="none" stroke="#111111" stroke-width="2.2"/><path d="M 158.0 50.0 Q 210.0 35.0 284 50.0" fill="none" stroke="#ffffff" stroke-width="0.8"/><circle cx="284" cy="50.0" r="3" fill="#f8c065" stroke="#111111" stroke-width="1"/></svg>