<svg xmlns="http://www.w3.org/2000/svg" viewBox="0 0 100 100" width="100%" height="100%" preserveAspectRatio="xMidYMid meet" fill="none" stroke="#111111" stroke-linecap="round" stroke-linejoin="round" font-family="-apple-system, BlinkMacSystemFont, 'Segoe UI', Roboto, sans-serif"><rect x="10" y="10" width="80" height="80" rx="8" ry="8" fill="#fafafa" stroke="#111111" stroke-width="4"/><circle cx="34.0" cy="34.0" r="2.5" fill="#ff7600" stroke="#111111" stroke-width="0.6"/><circle cx="34.0" cy="42.0" r="2.5" fill="#ff7600" stroke="#111111" stroke-width="0.6"/><circle cx="34.0" cy="50.0" r="2.5" fill="#ff7600" stroke="#111111" stroke-width="0.6"/><circle cx="34.0" cy="58.0" r="2.5" fill="#ff7600" stroke="#111111" stroke-width="0.6"/><circle cx="34.0" cy="66.0" r="2.5" fill="#ff7600" stroke="#111111" stroke-width="0.6"/><circle cx="42.0" cy="34.0" r="2.5" fill="#ff7600" stroke="#111111" stroke-width="0.6"/><circle cx="42.0" cy="42.0" r="2.5" fill="#5dff00" stroke="#111111" stroke-width="0.6"/><circle cx="42.0" cy="50.0" r="2.5" fill="#5dff00" stroke="#111111" stroke-width="0.6"/><circle cx="42.0" cy="58.0" r="2.5" fill="#5dff00" stroke="#111111" stroke-width="0.6"/><circle cx="42.0" cy="66.0" r="2.5" fill="#ff7600" stroke="#111111" stroke-width="0.6"/><circle cx="50.0" cy="34.0" r="2.5" fill="#ff7600" stroke="#111111" stroke-width="0.6"/><circle cx="50.0" cy="42.0" r="2.5" fill="#5dff00" stroke="#111111" stroke-width="0.6"/><circle cx="50.0" cy="50.0" r="2.5" fill="#0046ff" stroke="#111111" stroke-width="0.6"/><circle cx="50.0" cy="58.0" r="2.5" fill="#5dff00" stroke="#111111" stroke-width="0.6"/><circle cx="50.0" cy="66.0" r="2.5" fill="#ff7600" stroke="#111111" stroke-width="0.6"/><circle cx="58.0" cy="34.0" r="2.5" fill="#ff7600" stroke="#111111" stroke-width="0.6"/><circle cx="58.0" cy="42.0" r="2.5" fill="#5dff00" stroke="#111111" stroke-width="0.6"/><circle cx="58.0" cy="50.0" r="2.5" fill="#5dff00" stroke="#111111" stroke-width="0.6"/><circle cx="58.0" cy="58.0" r="2.5" fill="#5dff00" stroke="#111111" stroke-width="0.6"/><circle cx="58.0" cy="66.0" r="2.5" fill="#ff7600" stroke="#111111" stroke-width="0.6"/><circle cx="66.0" cy="34.0" r="2.5" fill="#ff7600" stroke="#111111" stroke-width="0.6"/><circle cx="66.0" cy="42.0" r="2.5" fill="#ff7600" stroke="#111111" stroke-width="0.6"/><circle cx="66.0" cy="50.0" r="2.5" fill="#ff7600" stroke="#111111" stroke-width="0.6"/><circle cx="66.0" cy="58.0" r="2.5" fill="#ff7600" stroke="#111111" stroke-width="0.6"/><circle cx="66.0" cy="66.0" r="2.5" fill="#ff7600" stroke="#111111" stroke-width="0.6"/><rect x="28.0" y="28.0" width="44" height="44" rx="3" fill="none" stroke="#111111" stroke-width="1.4"/></svg>