<svg xmlns="http://www.w3.org/2000/svg" viewBox="0 0 400 100" width="100%" height="100%" preserveAspectRatio="xMidYMid meet" fill="none" stroke="#111111" stroke-linecap="round" stroke-linejoin="round" font-family="-apple-system, BlinkMacSystemFont, 'Segoe UI', Roboto, sans-serif"><rect x="10" y="10" width="380" height="80" rx="8" ry="8" fill="#fafafa" stroke="#111111" stroke-width="4"/><line x1="100" y1="10" x2="100" y2="90" stroke="#111111" stroke-width="0.8" stroke-dasharray="2 3" opacity="0.35"/><line x1="200" y1="10" x2="200" y2="90" stroke="#111111" stroke-width="0.8" stroke-dasharray="2 3" opacity="0.35"/><line x1="300" y1="10" x2="300" y2="90" stroke="#111111" stroke-width="0.8" stroke-dasharray="2 3" opacity="0.35"/><line x1="14" y1="50.0" x2="386" y2="50.0" stroke="#444444" stroke-width="1" stroke-dasharray="6 4" opacity="0.55"/><path d="M 14 50.0 Q 40 40.0 60 50.0" fill="none" stroke="#111111" stroke-width="2.4"/><circle cx="60" cy="50.0" r="4" fill="#111111" stroke="none"/><line x1="72" y1="38.0" x2="72" y2="47.0" stroke="#111111" stroke-width="2"/><line x1="72" y1="53.0" x2="72" y2="62.0" stroke="#111111" stroke-width="2"/><path d="M 130 28.0 Q 142 50.0 130 72.0" fill="none" stroke="#111111" stroke-width="3"/><line x1="131.0" y1="36.8" x2="126.0" y2="36.8" stroke="#111111" stroke-width="1.2"/><line x1="131.0" y1="45.6" x2="126.0" y2="45.6" stroke="#111111" stroke-width="1.2"/><line x1="131.0" y1="54.4" x2="126.0" y2="54.4" stroke="#111111" stroke-width="1.2"/><line x1="131.0" y1="63.2" x2="126.0" y2="63.2" stroke="#111111" stroke-width="1.2"/><line x1="72" y1="50.0" x2="130" y2="35.0" stroke="#444444" stroke-width="1.2" opacity="0.85" /><line x1="72" y1="50.0" x2="130" y2="65.0" stroke="#444444" stroke-width="1.2" opacity="0.85" /><rect x="196" y="28.0" width="8" height="44" fill="#8e8e8e" stroke="#111111" stroke-width="1.5"/><line x1="197" y1="32.0" x2="203" y2="32.0" stroke="#111111" stroke-width="0.8"/><line x1="197" y1="38.0" x2="203" y2="38.0" stroke="#111111" stroke-width="0.8"/><line x1="197" y1="44.0" x2="203" y2="44.0" stroke="#111111" stroke-width="0.8"/><line x1="197" y1="50.0" x2="203" y2="50.0" stroke="#111111" stroke-width="0.8"/><line x1="197" y1="56.0" x2="203" y2="56.0" stroke="#111111" stroke-width="0.8"/><line x1="197" y1="62.0" x2="203" y2="62.0" stroke="#111111" stroke-width="0.8"/><line x1="197" y1="68.0" x2="203" y2="68.0" stroke="#111111" stroke-width="0.8"/><line x1="130" y1="35.0" x2="200" y2="35.0" stroke="#444444" stroke-width="1.2" opacity="0.85" /><line x1="130" y1="65.0" x2="200" y2="65.0" stroke="#444444" stroke-width="1.2" opacity="0.85" /><line x1="130" y1="50.0" x2="200" y2="50.0" stroke="#444444" stroke-width="1.2" opacity="0.85" /><line x1="204" y1="50.0" x2="310" y2="34.0" stroke="#3c00ff" stroke-width="1.4" opacity="0.85" /><line x1="204" y1="50.0" x2="310" y2="42.0" stroke="#00d5ff" stroke-width="1.4" opacity="0.85" /><line x1="204" y1="50.0" x2="310" y2="50.0" stroke="#81ff00" stroke-width="1.4" opacity="0.85" /><line x1="204" y1="50.0" x2="310" y2="58.0" stroke="#ffdf00" stroke-width="1.4" opacity="0.85" /><line x1="204" y1="50.0" x2="310" y2="66.0" stroke="#ff0000" stroke-width="1.4" opacity="0.85" /><path d="M 310 28.0 Q 322 50.0 310 72.0" fill="none" stroke="#111111" stroke-width="3"/><line x1="311.0" y1="36.8" x2="306.0" y2="36.8" stroke="#111111" stroke-width="1.2"/><line x1="311.0" y1="45.6" x2="306.0" y2="45.6" stroke="#111111" stroke-width="1.2"/><line x1="311.0" y1="54.4" x2="306.0" y2="54.4" stroke="#111111" stroke-width="1.2"/><line x1="311.0" y1="63.2" x2="306.0" y2="63.2" stroke="#111111" stroke-width="1.2"/><rect x="370" y="28.0" width="10" height="44" rx="1" fill="#444444" stroke="#111111" stroke-width="1.4"/><rect x="372" y="30.0" width="6" height="3" fill="#222"/><rect x="372" y="35.5" width="6" height="3" fill="#222"/><rect x="372" y="41.0" width="6" height="3" fill="#222"/><rect x="372" y="46.5" width="6" height="3" fill="#222"/><rect x="372" y="52.0" width="6" height="3" fill="#222"/><rect x="372" y="57.5" width="6" height="3" fill="#222"/><rect x="372" y="63.0" width="6" height="3" fill="#222"/><rect x="372" y="68.5" width="6" height="3" fill="#222"/><line x1="316" y1="34.0" x2="370" y2="32.0" stroke="#3c00ff" stroke-width="1.4" opacity="0.85" /><line x1="316" y1="42.0" x2="370" y2="41.0" stroke="#00d5ff" stroke-width="1.4" opacity="0.85" /><line x1="316" y1="50.0" x2="370" y2="50.0" stroke="#81ff00" stroke-width="1.4" opacity="0.85" /><line x1="316" y1="58.0" x2="370" y2="59.0" stroke="#ffdf00" stroke-width="1.4" opacity="0.85" /><line x1="316" y1="66.0" x2="370" y2="68.0" stroke="#ff0000" stroke-width="1.4" opacity="0.85" /><text x="200.0" y="84" text-anchor="middle" font-size="8" font-weight="600" fill="#444444" stroke="none">Spectrometer</text></svg>