<svg width="1545" height="412" xmlns="http://www.w3.org/2000/svg" xmlns:xlink="http://www.w3.org/1999/xlink" xml:space="preserve" overflow="hidden"><defs><linearGradient x1="189" y1="0" x2="189" y2="758" gradientUnits="userSpaceOnUse" spreadMethod="reflect" id="fill0"><stop offset="0" stop-color="#7030A0" stop-opacity="1"/><stop offset="0.29" stop-color="#00B0F0" stop-opacity="1"/><stop offset="0.57" stop-color="#92D050" stop-opacity="1"/><stop offset="0.95" stop-color="#FF0000" stop-opacity="1"/><stop offset="1" stop-color="#FF0000" stop-opacity="1"/></linearGradient></defs><g transform="translate(-1530 -935)"><g><rect x="0" y="0" width="378" height="378" stroke="#000000" stroke-width="27.5" stroke-linecap="butt" stroke-linejoin="miter" stroke-miterlimit="8" stroke-opacity="1" fill="none" transform="matrix(1.83697e-16 1 1 -1.83697e-16 1547 951)"/><rect x="0" y="0" width="62.0002" height="151" stroke="#000000" stroke-width="4.58333" stroke-linecap="butt" stroke-linejoin="miter" stroke-miterlimit="8" stroke-opacity="1" fill="#000000" fill-opacity="1" transform="matrix(-6.12323e-17 -1 -1 6.12323e-17 1966.5 1165.5)"/><path d="M332 143.367C284.716 147.107 237.433 150.848 208.763 143.367 180.094 135.886 168.54 116.715 159.982 98.4787 151.424 80.2429 150.14 49.8499 157.415 33.9522 164.689 18.0544 185.228 7.3001 203.628 3.0917 222.028-1.1167 251.554-2.5195 267.814 8.70261 284.075 19.9247 307.367 36.6502 301.191 70.4238 295.014 104.198 250.867 187.499 230.755 211.345 109.376 252.77 34.8743 169.416 0 182.742" stroke="#000000" stroke-width="10.3125" stroke-linecap="butt" stroke-linejoin="miter" stroke-miterlimit="8" stroke-opacity="1" fill="none" fill-rule="evenodd" transform="matrix(-1 0 0 1 2287 951)"/><rect x="0" y="0" width="378" height="758" stroke="#000000" stroke-width="27.5" stroke-linecap="butt" stroke-linejoin="miter" stroke-miterlimit="8" stroke-opacity="1" fill="url(#fill0)" transform="matrix(1.83697e-16 1 1 -1.83697e-16 2300 951)"/></g></g></svg>