<?xml version="1.0" encoding="UTF-8" standalone="no"?>
<svg
   width="413"
   height="412"
   xml:space="preserve"
   overflow="hidden"
   version="1.1"
   id="svg11"
   sodipodi:docname="uc2_aquarium_1x1.svg"
   inkscape:version="1.3.2 (091e20e, 2023-11-25, custom)"
   xmlns:inkscape="http://www.inkscape.org/namespaces/inkscape"
   xmlns:sodipodi="http://sodipodi.sourceforge.net/DTD/sodipodi-0.dtd"
   xmlns="http://www.w3.org/2000/svg"
   xmlns:svg="http://www.w3.org/2000/svg"><defs
     id="defs11" /><sodipodi:namedview
     id="namedview11"
     pagecolor="#ffffff"
     bordercolor="#000000"
     borderopacity="0.25"
     inkscape:showpageshadow="2"
     inkscape:pageopacity="0.0"
     inkscape:pagecheckerboard="0"
     inkscape:deskcolor="#d1d1d1"
     inkscape:zoom="1.0341223"
     inkscape:cx="238.8499"
     inkscape:cy="301.22164"
     inkscape:window-width="1920"
     inkscape:window-height="974"
     inkscape:window-x="2869"
     inkscape:window-y="310"
     inkscape:window-maximized="1"
     inkscape:current-layer="svg11" /><rect
     x="17"
     y="17"
     width="378"
     height="378"
     stroke="#000000"
     stroke-width="27.5"
     stroke-linecap="butt"
     stroke-linejoin="miter"
     stroke-miterlimit="8"
     stroke-opacity="1"
     fill="none"
     id="rect1" /><rect
     x="109.39594"
     y="109.39594"
     width="193.20811"
     height="193.20811"
     stroke="#000000"
     stroke-width="14.0561"
     stroke-linecap="butt"
     stroke-linejoin="miter"
     stroke-miterlimit="8"
     stroke-opacity="1"
     fill="none"
     id="rect1-2" /><g
     id="wave"
     transform="matrix(6.8379104,0,0,6.8379104,123.94508,123.94508)"><path
       id="primary"
       d="m 21,11 c -2.25,0 -2.25,2 -4.5,2 C 14.25,13 14.25,11 12,11 9.75,11 9.75,13 7.5,13 5.25,13 5.25,11 3,11"
       fill="none"
       stroke="#000000"
       stroke-linecap="round"
       stroke-linejoin="round"
       stroke-width="2" /><path
       id="primary-2"
       data-name="primary"
       d="M 3,5 C 5.25,5 5.25,7 7.5,7 9.75,7 9.75,5 12,5 14.25,5 14.26,7 16.51,7 18.76,7 18.75,5 21,5"
       fill="none"
       stroke="#000000"
       stroke-linecap="round"
       stroke-linejoin="round"
       stroke-width="2" /><path
       id="primary-3"
       data-name="primary"
       d="m 21,17 c -2.25,0 -2.25,2 -4.5,2 C 14.25,19 14.25,17 12,17 9.75,17 9.75,19 7.5,19 5.25,19 5.25,17 3,17"
       fill="none"
       stroke="#000000"
       stroke-linecap="round"
       stroke-linejoin="round"
       stroke-width="2" /></g></svg>
