<svg xmlns="http://www.w3.org/2000/svg" viewBox="0 0 200 200" width="100%" height="100%" preserveAspectRatio="xMidYMid meet" fill="none" stroke="#111111" stroke-linecap="round" stroke-linejoin="round" font-family="-apple-system, BlinkMacSystemFont, 'Segoe UI', Roboto, sans-serif"><rect x="10" y="10" width="180" height="180" rx="8" ry="8" fill="#fafafa" stroke="#111111" stroke-width="4"/><line x1="100" y1="10" x2="100" y2="190" stroke="#111111" stroke-width="0.8" stroke-dasharray="2 3" opacity="0.35"/><line x1="10" y1="100" x2="190" y2="100" stroke="#111111" stroke-width="0.8" stroke-dasharray="2 3" opacity="0.35"/><line x1="14" y1="100.0" x2="186" y2="100.0" stroke="#444444" stroke-width="1" stroke-dasharray="6 4" opacity="0.55"/><rect x="35" y="65.0" width="70" height="70" rx="6" fill="#444444" stroke="#111111" stroke-width="2"/><line x1="43" y1="57.0" x2="43" y2="65.0" stroke="#111111" stroke-width="1.4"/><line x1="43" y1="135.0" x2="43" y2="143.0" stroke="#111111" stroke-width="1.4"/><line x1="53" y1="57.0" x2="53" y2="65.0" stroke="#111111" stroke-width="1.4"/><line x1="53" y1="135.0" x2="53" y2="143.0" stroke="#111111" stroke-width="1.4"/><line x1="63" y1="57.0" x2="63" y2="65.0" stroke="#111111" stroke-width="1.4"/><line x1="63" y1="135.0" x2="63" y2="143.0" stroke="#111111" stroke-width="1.4"/><line x1="73" y1="57.0" x2="73" y2="65.0" stroke="#111111" stroke-width="1.4"/><line x1="73" y1="135.0" x2="73" y2="143.0" stroke="#111111" stroke-width="1.4"/><line x1="83" y1="57.0" x2="83" y2="65.0" stroke="#111111" stroke-width="1.4"/><line x1="83" y1="135.0" x2="83" y2="143.0" stroke="#111111" stroke-width="1.4"/><line x1="93" y1="57.0" x2="93" y2="65.0" stroke="#111111" stroke-width="1.4"/><line x1="93" y1="135.0" x2="93" y2="143.0" stroke="#111111" stroke-width="1.4"/><circle cx="105" cy="100.0" r="9" fill="#dc3545" stroke="#111111" stroke-width="1.6"/><line x1="109" y1="100.0" x2="184" y2="100.0" stroke="#dc3545" stroke-width="4" opacity="0.85" /><text x="70.0" y="105.0" text-anchor="middle" font-size="14" font-weight="800" fill="#fff" stroke="none">LASER</text></svg>