<svg xmlns="http://www.w3.org/2000/svg" viewBox="0 0 100 100" width="100%" height="100%" preserveAspectRatio="xMidYMid meet" fill="none" stroke="#111111" stroke-linecap="round" stroke-linejoin="round" font-family="-apple-system, BlinkMacSystemFont, 'Segoe UI', Roboto, sans-serif"><rect x="10" y="10" width="80" height="80" rx="8" ry="8" fill="#fafafa" stroke="#111111" stroke-width="4"/><line x1="14" y1="50.0" x2="86" y2="50.0" stroke="#444444" stroke-width="1" stroke-dasharray="6 4" opacity="0.55"/><line x1="58.0" y1="28" x2="58.0" y2="72" stroke="#111111" stroke-width="4"/><line x1="58.0" y1="35.333333333333336" x2="52.0" y2="35.333333333333336" stroke="#111111" stroke-width="1.2"/><line x1="58.0" y1="42.666666666666664" x2="52.0" y2="42.666666666666664" stroke="#111111" stroke-width="1.2"/><line x1="58.0" y1="50.0" x2="52.0" y2="50.0" stroke="#111111" stroke-width="1.2"/><line x1="58.0" y1="57.33333333333333" x2="52.0" y2="57.33333333333333" stroke="#111111" stroke-width="1.2"/><line x1="58.0" y1="64.66666666666667" x2="52.0" y2="64.66666666666667" stroke="#111111" stroke-width="1.2"/><circle cx="72.0" cy="32" r="5" fill="#ffffff" stroke="#111111" stroke-width="1.4"/><line x1="76.0" y1="32.0" x2="77.5" y2="32.0" stroke="#111111" stroke-width="0.8"/><line x1="74.82842712474618" y1="34.82842712474619" x2="75.88908729652601" y2="35.889087296526014" stroke="#111111" stroke-width="0.8"/><line x1="72.0" y1="36.0" x2="72.0" y2="37.5" stroke="#111111" stroke-width="0.8"/><line x1="69.17157287525382" y1="34.82842712474619" x2="68.11091270347399" y2="35.889087296526014" stroke="#111111" stroke-width="0.8"/><line x1="68.0" y1="32.0" x2="66.5" y2="32.0" stroke="#111111" stroke-width="0.8"/><line x1="69.17157287525382" y1="29.17157287525381" x2="68.11091270347399" y2="28.11091270347399" stroke="#111111" stroke-width="0.8"/><line x1="72.0" y1="28.0" x2="72.0" y2="26.5" stroke="#111111" stroke-width="0.8"/><line x1="74.82842712474618" y1="29.17157287525381" x2="75.88908729652601" y2="28.11091270347399" stroke="#111111" stroke-width="0.8"/><circle cx="72.0" cy="68" r="5" fill="#ffffff" stroke="#111111" stroke-width="1.4"/><line x1="76.0" y1="68.0" x2="77.5" y2="68.0" stroke="#111111" stroke-width="0.8"/><line x1="74.82842712474618" y1="70.82842712474618" x2="75.88908729652601" y2="71.88908729652601" stroke="#111111" stroke-width="0.8"/><line x1="72.0" y1="72.0" x2="72.0" y2="73.5" stroke="#111111" stroke-width="0.8"/><line x1="69.17157287525382" y1="70.82842712474618" x2="68.11091270347399" y2="71.88908729652601" stroke="#111111" stroke-width="0.8"/><line x1="68.0" y1="68.0" x2="66.5" y2="68.0" stroke="#111111" stroke-width="0.8"/><line x1="69.17157287525382" y1="65.17157287525382" x2="68.11091270347399" y2="64.11091270347399" stroke="#111111" stroke-width="0.8"/><line x1="72.0" y1="64.0" x2="72.0" y2="62.5" stroke="#111111" stroke-width="0.8"/><line x1="74.82842712474618" y1="65.17157287525382" x2="75.88908729652601" y2="64.11091270347399" stroke="#111111" stroke-width="0.8"/><line x1="16" y1="46.0" x2="58.0" y2="46.0" stroke="#1e6dd1" stroke-width="1.8" opacity="0.85" /><line x1="58.0" y1="54.0" x2="16" y2="54.0" stroke="#1e6dd1" stroke-width="1.8" opacity="0.85" /><path d="M 20 54.0 l 5 -3 l 0 6 z" fill="#1e6dd1" stroke="none"/></svg>