<svg xmlns="http://www.w3.org/2000/svg" viewBox="0 0 100 100" width="100%" height="100%" preserveAspectRatio="xMidYMid meet" fill="none" stroke="#111111" stroke-linecap="round" stroke-linejoin="round" font-family="-apple-system, BlinkMacSystemFont, 'Segoe UI', Roboto, sans-serif"><rect x="10" y="10" width="80" height="80" rx="8" ry="8" fill="#fafafa" stroke="#111111" stroke-width="4"/><line x1="14" y1="50.0" x2="86" y2="50.0" stroke="#444444" stroke-width="1" stroke-dasharray="6 4" opacity="0.55"/><rect x="22" y="28.0" width="56" height="44" rx="3" fill="#a1a1a1" stroke="#111111" stroke-width="1.6"/><circle cx="50.0" cy="50.0" r="14" fill="#ffffff" stroke="#111111" stroke-width="1.6"/><line x1="62.0" y1="50.0" x2="64.0" y2="50.0" stroke="#111111" stroke-width="1"/><line x1="60.392304845413264" y1="56.0" x2="62.124355652982146" y2="57.0" stroke="#111111" stroke-width="1"/><line x1="56.0" y1="60.392304845413264" x2="57.0" y2="62.12435565298214" stroke="#111111" stroke-width="1"/><line x1="50.0" y1="62.0" x2="50.0" y2="64.0" stroke="#111111" stroke-width="1"/><line x1="44.0" y1="60.392304845413264" x2="43.0" y2="62.124355652982146" stroke="#111111" stroke-width="1"/><line x1="39.607695154586736" y1="56.0" x2="37.875644347017854" y2="57.0" stroke="#111111" stroke-width="1"/><line x1="38.0" y1="50.0" x2="36.0" y2="50.0" stroke="#111111" stroke-width="1"/><line x1="39.607695154586736" y1="44.0" x2="37.875644347017854" y2="43.0" stroke="#111111" stroke-width="1"/><line x1="43.99999999999999" y1="39.607695154586736" x2="42.99999999999999" y2="37.87564434701786" stroke="#111111" stroke-width="1"/><line x1="50.0" y1="38.0" x2="50.0" y2="36.0" stroke="#111111" stroke-width="1"/><line x1="56.0" y1="39.607695154586736" x2="57.0" y2="37.87564434701786" stroke="#111111" stroke-width="1"/><line x1="60.392304845413264" y1="43.99999999999999" x2="62.12435565298214" y2="42.99999999999999" stroke="#111111" stroke-width="1"/><text x="50.0" y="53.0" text-anchor="middle" font-size="7" font-weight="700" fill="#111111" stroke="none">RMS</text></svg>