<svg xmlns="http://www.w3.org/2000/svg" viewBox="0 0 100 100" width="100%" height="100%" preserveAspectRatio="xMidYMid meet" fill="none" stroke="#111111" stroke-linecap="round" stroke-linejoin="round" font-family="-apple-system, BlinkMacSystemFont, 'Segoe UI', Roboto, sans-serif"><rect x="10" y="10" width="80" height="80" rx="8" ry="8" fill="#fafafa" stroke="#111111" stroke-width="4"/><line x1="14" y1="50.0" x2="86" y2="50.0" stroke="#444444" stroke-width="1" stroke-dasharray="6 4" opacity="0.55"/><rect x="28" y="36.0" width="30" height="28" rx="3" fill="#444444" stroke="#111111" stroke-width="1.6"/><line x1="32" y1="32.0" x2="32" y2="36.0" stroke="#111111" stroke-width="1"/><line x1="32" y1="64.0" x2="32" y2="68.0" stroke="#111111" stroke-width="1"/><line x1="39" y1="32.0" x2="39" y2="36.0" stroke="#111111" stroke-width="1"/><line x1="39" y1="64.0" x2="39" y2="68.0" stroke="#111111" stroke-width="1"/><line x1="46" y1="32.0" x2="46" y2="36.0" stroke="#111111" stroke-width="1"/><line x1="46" y1="64.0" x2="46" y2="68.0" stroke="#111111" stroke-width="1"/><line x1="53" y1="32.0" x2="53" y2="36.0" stroke="#111111" stroke-width="1"/><line x1="53" y1="64.0" x2="53" y2="68.0" stroke="#111111" stroke-width="1"/><circle cx="58" cy="50.0" r="4" fill="#dc3545" stroke="#111111" stroke-width="1"/><line x1="60" y1="50.0" x2="84" y2="50.0" stroke="#dc3545" stroke-width="2.2" opacity="0.85" /><text x="43.0" y="55.0" text-anchor="middle" font-size="7" font-weight="700" fill="#fff" stroke="none">LASER</text><path d="M 76 19 l 5 8 l -10 0 z" fill="#f5a524" stroke="#111111" stroke-width="0.8"/><text x="76" y="28" text-anchor="middle" font-size="8" font-weight="800" fill="#111111" stroke="none">!</text></svg>