<svg width="775" height="408" xmlns="http://www.w3.org/2000/svg" xmlns:xlink="http://www.w3.org/1999/xlink" xml:space="preserve" overflow="hidden"><g transform="translate(-2708 -449)"><g><rect x="0" y="0" width="191" height="191" stroke="#000000" stroke-width="4.58333" stroke-linecap="butt" stroke-linejoin="miter" stroke-miterlimit="8" stroke-opacity="1" fill="#000000" fill-opacity="1" transform="matrix(1.83697e-16 1 1 -1.83697e-16 3115.5 557.5)"/><path d="M0 0 0.000360892 188.978" stroke="#FFFFFF" stroke-width="13.75" stroke-linecap="butt" stroke-linejoin="miter" stroke-miterlimit="8" stroke-opacity="1" fill="none" fill-rule="evenodd" transform="matrix(1.83697e-16 1 1 -1.83697e-16 3122 587)"/><path d="M0 0 0.000360892 188.978" stroke="#FFFFFF" stroke-width="13.75" stroke-linecap="butt" stroke-linejoin="miter" stroke-miterlimit="8" stroke-opacity="1" fill="none" fill-rule="evenodd" transform="matrix(1.83697e-16 1 1 -1.83697e-16 3122 613)"/><path d="M0 0 0.000360892 188.978" stroke="#FFFFFF" stroke-width="13.75" stroke-linecap="butt" stroke-linejoin="miter" stroke-miterlimit="8" stroke-opacity="1" fill="none" fill-rule="evenodd" transform="matrix(1.83697e-16 1 1 -1.83697e-16 3122 666)"/><path d="M0 0 0.000360892 188.978" stroke="#FFFFFF" stroke-width="13.75" stroke-linecap="butt" stroke-linejoin="miter" stroke-miterlimit="8" stroke-opacity="1" fill="none" fill-rule="evenodd" transform="matrix(1.83697e-16 1 1 -1.83697e-16 3122 718)"/><path d="M0 0 0.000360892 188.978" stroke="#FFFFFF" stroke-width="13.75" stroke-linecap="butt" stroke-linejoin="miter" stroke-miterlimit="8" stroke-opacity="1" fill="none" fill-rule="evenodd" transform="matrix(1.83697e-16 1 1 -1.83697e-16 3122 692)"/><path d="M0 0 0.000360892 188.978" stroke="#FFFFFF" stroke-width="13.75" stroke-linecap="butt" stroke-linejoin="miter" stroke-miterlimit="8" stroke-opacity="1" fill="none" fill-rule="evenodd" transform="matrix(1.83697e-16 1 1 -1.83697e-16 3122 639)"/><rect x="0" y="0" width="378" height="378" stroke="#000000" stroke-width="27.5" stroke-linecap="butt" stroke-linejoin="miter" stroke-miterlimit="8" stroke-opacity="1" fill="none" transform="matrix(1.83697e-16 1 1 -1.83697e-16 2724 464)"/><path d="M0 0 0.000360892 291.132" stroke="#000000" stroke-width="27.5" stroke-linecap="butt" stroke-linejoin="miter" stroke-miterlimit="8" stroke-opacity="1" fill="none" fill-rule="evenodd" transform="matrix(-1 0 0 1 3059 507)"/><path d="M0 20.5C-5.21983e-15 9.17814 9.17814-2.60992e-15 20.5-2.60992e-15 31.8218-5.21983e-15 40.9999 9.17814 40.9999 20.5 40.9999 31.8218 31.8218 40.9999 20.5 40.9999 9.17814 40.9999-1.04397e-14 31.8218 0 20.5Z" stroke="#44546A" stroke-width="3.4375" stroke-linecap="butt" stroke-linejoin="round" stroke-miterlimit="10" stroke-opacity="1" fill="#000000" fill-rule="evenodd" fill-opacity="1" transform="matrix(1 -1.22465e-16 -1.22465e-16 -1 3018.5 673.5)"/><path d="M2784.5 543.5 3020.5 653.404 2784.5 776.5Z" stroke="#FFFFFF" stroke-width="3.4375" stroke-linecap="butt" stroke-linejoin="round" stroke-miterlimit="10" stroke-opacity="1" fill="#92D050" fill-rule="evenodd" fill-opacity="1"/></g></g></svg>