<svg width="412" height="412" xmlns="http://www.w3.org/2000/svg" xmlns:xlink="http://www.w3.org/1999/xlink" xml:space="preserve" overflow="hidden"><g transform="translate(-1870 -1031)"><g><rect x="1886" y="1049" width="378" height="377" stroke="#000000" stroke-width="27.5" stroke-linecap="butt" stroke-linejoin="miter" stroke-miterlimit="8" stroke-opacity="1" fill="none"/><path d="M2041 1419.31 2041 1054" stroke="#000000" stroke-width="27.5" stroke-linecap="butt" stroke-linejoin="miter" stroke-miterlimit="8" stroke-opacity="1" fill="none" fill-rule="evenodd"/><path d="M2054.5 1135.5C2083.22 1135.5 2106.5 1178.48 2106.5 1231.5 2106.5 1284.52 2083.22 1327.5 2054.5 1327.5 2050.09 1327.5 2045.69 1326.46 2041.42 1324.41" stroke="#000000" stroke-width="4.58333" stroke-linecap="butt" stroke-linejoin="miter" stroke-miterlimit="8" stroke-opacity="1" fill="none" fill-rule="evenodd"/><path d="M2051.5 1189C2051.5 1181.54 2057.32 1175.5 2064.5 1175.5 2071.68 1175.5 2077.5 1181.54 2077.5 1189 2077.5 1196.46 2071.68 1202.5 2064.5 1202.5 2057.32 1202.5 2051.5 1196.46 2051.5 1189Z" stroke="#000000" stroke-width="4.58333" stroke-linecap="butt" stroke-linejoin="miter" stroke-miterlimit="8" stroke-opacity="1" fill="none" fill-rule="evenodd"/><path d="M2075.5 1209C2075.5 1204.31 2079.08 1200.5 2083.5 1200.5 2087.92 1200.5 2091.5 1204.31 2091.5 1209 2091.5 1213.69 2087.92 1217.5 2083.5 1217.5 2079.08 1217.5 2075.5 1213.69 2075.5 1209Z" stroke="#000000" stroke-width="4.58333" stroke-linecap="butt" stroke-linejoin="miter" stroke-miterlimit="8" stroke-opacity="1" fill="none" fill-rule="evenodd"/><path d="M2051.5 1243C2051.5 1236.1 2056.87 1230.5 2063.5 1230.5 2070.13 1230.5 2075.5 1236.1 2075.5 1243 2075.5 1249.9 2070.13 1255.5 2063.5 1255.5 2056.87 1255.5 2051.5 1249.9 2051.5 1243Z" stroke="#000000" stroke-width="4.58333" stroke-linecap="butt" stroke-linejoin="miter" stroke-miterlimit="8" stroke-opacity="1" fill="none" fill-rule="evenodd"/><path d="M2067.5 1280C2067.5 1275.31 2071.31 1271.5 2076 1271.5 2080.69 1271.5 2084.5 1275.31 2084.5 1280 2084.5 1284.69 2080.69 1288.5 2076 1288.5 2071.31 1288.5 2067.5 1284.69 2067.5 1280Z" stroke="#000000" stroke-width="4.58333" stroke-linecap="butt" stroke-linejoin="miter" stroke-miterlimit="8" stroke-opacity="1" fill="none" fill-rule="evenodd"/></g></g></svg>