<svg width="774" height="412" xmlns="http://www.w3.org/2000/svg" xmlns:xlink="http://www.w3.org/1999/xlink" xml:space="preserve" overflow="hidden"><g transform="translate(-1031 -843)"><g><rect x="1412" y="860" width="378" height="378" stroke="#000000" stroke-width="27.5" stroke-linecap="butt" stroke-linejoin="miter" stroke-miterlimit="8" stroke-opacity="1" fill="none"/><rect x="1331.5" y="1022.5" width="151" height="60.9998" stroke="#000000" stroke-width="4.58333" stroke-linecap="butt" stroke-linejoin="miter" stroke-miterlimit="8" stroke-opacity="1" fill="#000000" fill-opacity="1"/><path d="M1336.35 1052.71C1275.55 1075.21 1214.76 1097.71 1174.5 1099.64 1134.24 1101.56 1112.39 1082.92 1094.79 1064.26 1077.2 1045.6 1064.93 1009.56 1068.94 987.687 1072.95 965.811 1096.18 945.065 1118.88 933.002 1141.58 920.938 1179.86 908.01 1205.13 915.306 1230.39 922.602 1260.94 946.032 1270.47 976.777 1279.99 1007.52 1280.37 1063.46 1262.27 1099.78 1244.16 1136.09 1203.01 1165.39 1161.85 1194.68" stroke="#000000" stroke-width="10.3125" stroke-linecap="butt" stroke-linejoin="miter" stroke-miterlimit="8" stroke-opacity="1" fill="none" fill-rule="evenodd"/><path d="M1680.5 1049C1680.5 987.42 1696.84 937.5 1717 937.5 1737.16 937.5 1753.5 987.42 1753.5 1049 1753.5 1110.58 1737.16 1160.5 1717 1160.5 1696.84 1160.5 1680.5 1110.58 1680.5 1049Z" stroke="#172C51" stroke-width="9.16667" stroke-linecap="butt" stroke-linejoin="round" stroke-miterlimit="10" stroke-opacity="1" fill="#4472C4" fill-rule="evenodd" fill-opacity="1"/></g></g></svg>