<svg width="687" height="412" xmlns="http://www.w3.org/2000/svg" xmlns:xlink="http://www.w3.org/1999/xlink" xml:space="preserve" overflow="hidden"><g transform="translate(-3309 -3034)"><g><rect x="3602" y="3051" width="378" height="378" stroke="#000000" stroke-width="27.5" stroke-linecap="butt" stroke-linejoin="miter" stroke-miterlimit="8" stroke-opacity="1" fill="none"/><rect x="3551.5" y="3213.5" width="151" height="62.0002" stroke="#000000" stroke-width="4.58333" stroke-linecap="butt" stroke-linejoin="miter" stroke-miterlimit="8" stroke-opacity="1" fill="#000000" fill-opacity="1"/><path d="M3562 3240.29C3497.4 3244.97 3432.8 3249.64 3393.63 3240.29 3354.46 3230.93 3338.68 3206.96 3326.98 3184.15 3315.29 3161.35 3313.54 3123.34 3323.48 3103.46 3333.42 3083.58 3361.48 3070.13 3386.62 3064.87 3411.75 3059.6 3452.09 3057.85 3474.31 3071.88 3496.52 3085.92 3519.32 3116.91 3519.91 3149.07 3520.49 3181.23 3505.29 3235.03 3477.82 3264.85 3450.34 3294.67 3402.69 3311.33 3355.05 3328" stroke="#000000" stroke-width="10.3125" stroke-linecap="butt" stroke-linejoin="miter" stroke-miterlimit="8" stroke-opacity="1" fill="none" fill-rule="evenodd"/><path d="M3676 3423.31 3676 3058" stroke="#000000" stroke-width="27.5" stroke-linecap="butt" stroke-linejoin="miter" stroke-miterlimit="8" stroke-opacity="1" fill="none" fill-rule="evenodd"/></g></g></svg>