<svg width="136" height="136" xmlns="http://www.w3.org/2000/svg" xmlns:xlink="http://www.w3.org/1999/xlink" xml:space="preserve" overflow="hidden"><g transform="translate(-544 -289)"><g><g><g><path d="M206.876 416.371C204.529 416.937 203.086 419.299 203.652 421.645 204.126 423.608 205.882 424.99 207.901 424.99L232.134 424.99C234.548 424.99 236.505 423.033 236.505 420.62 236.505 418.601 235.122 416.845 233.16 416.371 232.287 416.16 231.672 415.38 231.672 414.483L231.672 412.85C231.672 412.179 232.216 411.636 232.887 411.636L275.866 411.636C278.279 411.636 280.236 409.679 280.236 407.265L280.236 364.286C280.236 363.615 280.78 363.072 281.451 363.072L283.084 363.072C283.98 363.072 284.761 363.687 284.972 364.559 285.538 366.905 287.9 368.348 290.246 367.782 292.208 367.308 293.591 365.552 293.591 363.533L293.591 339.3C293.591 336.886 291.634 334.93 289.22 334.93 287.202 334.93 285.445 336.312 284.972 338.275 284.761 339.147 283.98 339.762 283.084 339.762L281.451 339.762C280.78 339.762 280.236 339.218 280.236 338.547L280.236 295.568C280.236 293.155 278.279 291.198 275.866 291.198L233.494 291.198C233.092 291.198 232.765 291.524 232.765 291.926L232.765 292.748C232.765 293.378 233.171 293.937 233.77 294.133 236.574 295.049 238.105 298.066 237.189 300.87 236.47 303.067 234.422 304.553 232.111 304.553L207.924 304.553C204.974 304.553 202.582 302.161 202.583 299.211 202.583 296.9 204.069 294.851 206.265 294.133 206.864 293.937 207.269 293.378 207.269 292.748L207.269 291.926C207.269 291.524 206.943 291.198 206.541 291.198L164.169 291.198C161.755 291.198 159.798 293.155 159.798 295.568L159.798 337.94C159.798 338.342 160.125 338.669 160.527 338.669L161.349 338.669C161.98 338.669 162.538 338.263 162.734 337.665 163.65 334.86 166.666 333.329 169.471 334.246 171.668 334.964 173.154 337.013 173.154 339.324L173.154 363.51C173.154 366.46 170.762 368.852 167.812 368.852 165.501 368.852 163.451 367.366 162.734 365.169 162.538 364.57 161.98 364.165 161.349 364.165L160.527 364.165C160.125 364.165 159.798 364.491 159.798 364.893L159.798 407.265C159.798 409.679 161.755 411.636 164.169 411.636L207.148 411.636C207.819 411.636 208.362 412.179 208.362 412.85L208.362 414.483C208.362 415.38 207.747 416.16 206.876 416.371Z" stroke="#000000" stroke-width="2.51906" stroke-linecap="butt" stroke-linejoin="miter" stroke-miterlimit="4" stroke-opacity="1" fill="none" fill-rule="nonzero" transform="matrix(1 0 0 1.00212 385.064 -1.36017)"/><path d="M262.267 314.509 262.267 388.325C262.267 391.276 259.876 393.667 256.925 393.667L183.109 393.667C180.159 393.667 177.767 391.276 177.767 388.325L177.767 314.509C177.767 311.558 180.159 309.167 183.109 309.167L256.925 309.167C259.876 309.167 262.267 311.558 262.267 314.509Z" stroke="#000000" stroke-width="2.51906" stroke-linecap="butt" stroke-linejoin="miter" stroke-miterlimit="4" stroke-opacity="1" fill="none" fill-rule="nonzero" transform="matrix(1 0 0 1.00212 385.064 -1.36017)"/><path d="M278.658 351.417C278.655 348.534 276.315 346.198 273.432 346.202 270.553 346.205 268.22 348.538 268.217 351.417 268.22 354.3 270.56 356.635 273.443 356.632 276.322 356.629 278.655 354.296 278.658 351.417Z" stroke="#000000" stroke-width="2.51906" stroke-linecap="butt" stroke-linejoin="miter" stroke-miterlimit="4" stroke-opacity="1" fill="none" fill-rule="nonzero" transform="matrix(1 0 0 1.00212 385.064 -1.36017)"/><path d="M225.238 404.837C225.238 401.953 222.9 399.616 220.018 399.616 217.134 399.616 214.797 401.953 214.797 404.837 214.797 407.72 217.134 410.057 220.018 410.057 222.9 410.057 225.238 407.72 225.238 404.837Z" stroke="#000000" stroke-width="2.51906" stroke-linecap="butt" stroke-linejoin="miter" stroke-miterlimit="4" stroke-opacity="1" fill="none" fill-rule="nonzero" transform="matrix(1 0 0 1.00212 385.064 -1.36017)"/><path d="M177.282 302.853C177.28 299.635 174.67 297.027 171.451 297.028 168.235 297.03 165.628 299.637 165.626 302.853 165.628 306.072 168.238 308.68 171.456 308.678 174.673 308.676 177.28 306.069 177.282 302.853Z" stroke="#000000" stroke-width="2.51906" stroke-linecap="butt" stroke-linejoin="miter" stroke-miterlimit="4" stroke-opacity="1" fill="none" fill-rule="nonzero" transform="matrix(1 0 0 1.00212 385.064 -1.36017)"/><path d="M175.825 316.208C175.822 312.922 173.156 310.261 169.871 310.264 166.589 310.267 163.929 312.926 163.927 316.208 163.929 319.493 166.595 322.155 169.881 322.153 173.162 322.15 175.822 319.49 175.825 316.208Z" stroke="#000000" stroke-width="2.51906" stroke-linecap="butt" stroke-linejoin="miter" stroke-miterlimit="4" stroke-opacity="1" fill="none" fill-rule="nonzero" transform="matrix(1 0 0 1.00212 385.064 -1.36017)"/><path d="M190.758 301.275C190.758 297.989 188.095 295.326 184.809 295.326 181.523 295.326 178.86 297.989 178.86 301.275 178.86 304.56 181.523 307.224 184.809 307.224 188.095 307.224 190.758 304.56 190.758 301.275Z" stroke="#000000" stroke-width="2.51906" stroke-linecap="butt" stroke-linejoin="miter" stroke-miterlimit="4" stroke-opacity="1" fill="none" fill-rule="nonzero" transform="matrix(1 0 0 1.00212 385.064 -1.36017)"/><path d="M177.282 399.98C177.28 396.762 174.67 394.154 171.451 394.156 168.235 394.157 165.628 396.764 165.626 399.98 165.628 403.199 168.238 405.807 171.456 405.805 174.673 405.803 177.28 403.196 177.282 399.98Z" stroke="#000000" stroke-width="2.51906" stroke-linecap="butt" stroke-linejoin="miter" stroke-miterlimit="4" stroke-opacity="1" fill="none" fill-rule="nonzero" transform="matrix(1 0 0 1.00212 385.064 -1.36017)"/><path d="M175.825 386.626C175.822 383.34 173.156 380.678 169.871 380.681 166.589 380.683 163.929 383.343 163.927 386.626 163.929 389.911 166.595 392.572 169.881 392.57 173.162 392.567 175.822 389.907 175.825 386.626Z" stroke="#000000" stroke-width="2.51906" stroke-linecap="butt" stroke-linejoin="miter" stroke-miterlimit="4" stroke-opacity="1" fill="none" fill-rule="nonzero" transform="matrix(1 0 0 1.00212 385.064 -1.36017)"/><path d="M190.758 401.559C190.758 398.273 188.095 395.61 184.809 395.61 181.523 395.61 178.86 398.273 178.86 401.559 178.86 404.844 181.523 407.508 184.809 407.508 188.095 407.508 190.758 404.844 190.758 401.559Z" stroke="#000000" stroke-width="2.51906" stroke-linecap="butt" stroke-linejoin="miter" stroke-miterlimit="4" stroke-opacity="1" fill="none" fill-rule="nonzero" transform="matrix(1 0 0 1.00212 385.064 -1.36017)"/><path d="M274.409 302.853C274.407 299.635 271.797 297.027 268.578 297.028 265.362 297.03 262.755 299.637 262.753 302.853 262.755 306.072 265.365 308.68 268.583 308.678 271.8 308.676 274.407 306.069 274.409 302.853Z" stroke="#000000" stroke-width="2.51906" stroke-linecap="butt" stroke-linejoin="miter" stroke-miterlimit="4" stroke-opacity="1" fill="none" fill-rule="nonzero" transform="matrix(1 0 0 1.00212 385.064 -1.36017)"/><path d="M276.109 316.208C276.106 312.922 273.44 310.261 270.154 310.264 266.873 310.267 264.213 312.926 264.21 316.208 264.213 319.493 266.878 322.155 270.164 322.153 273.446 322.15 276.106 319.49 276.109 316.208Z" stroke="#000000" stroke-width="2.51906" stroke-linecap="butt" stroke-linejoin="miter" stroke-miterlimit="4" stroke-opacity="1" fill="none" fill-rule="nonzero" transform="matrix(1 0 0 1.00212 385.064 -1.36017)"/><path d="M261.175 301.275C261.175 297.989 258.512 295.326 255.226 295.326 251.941 295.326 249.277 297.989 249.277 301.275 249.277 304.56 251.941 307.224 255.226 307.224 258.512 307.224 261.175 304.56 261.175 301.275Z" stroke="#000000" stroke-width="2.51906" stroke-linecap="butt" stroke-linejoin="miter" stroke-miterlimit="4" stroke-opacity="1" fill="none" fill-rule="nonzero" transform="matrix(1 0 0 1.00212 385.064 -1.36017)"/><path d="M261.175 401.559C261.175 398.273 258.512 395.61 255.226 395.61 251.941 395.61 249.277 398.273 249.277 401.559 249.277 404.844 251.941 407.508 255.226 407.508 258.512 407.508 261.175 404.844 261.175 401.559Z" stroke="#000000" stroke-width="2.51906" stroke-linecap="butt" stroke-linejoin="miter" stroke-miterlimit="4" stroke-opacity="1" fill="none" fill-rule="nonzero" transform="matrix(1 0 0 1.00212 385.064 -1.36017)"/><path d="M276.109 386.626C276.106 383.34 273.44 380.678 270.154 380.681 266.873 380.683 264.213 383.343 264.21 386.626 264.213 389.911 266.878 392.572 270.164 392.57 273.446 392.567 276.106 389.907 276.109 386.626Z" stroke="#000000" stroke-width="2.51906" stroke-linecap="butt" stroke-linejoin="miter" stroke-miterlimit="4" stroke-opacity="1" fill="none" fill-rule="nonzero" transform="matrix(1 0 0 1.00212 385.064 -1.36017)"/><path d="M274.409 399.98C274.407 396.762 271.797 394.154 268.578 394.156 265.362 394.157 262.755 396.764 262.753 399.98 262.755 403.199 265.365 405.807 268.583 405.805 271.8 405.803 274.407 403.196 274.409 399.98Z" stroke="#000000" stroke-width="2.51906" stroke-linecap="butt" stroke-linejoin="miter" stroke-miterlimit="4" stroke-opacity="1" fill="none" fill-rule="nonzero" transform="matrix(1 0 0 1.00212 385.064 -1.36017)"/></g></g></g></g></svg>