<svg width="408" height="798" xmlns="http://www.w3.org/2000/svg" xmlns:xlink="http://www.w3.org/1999/xlink" xml:space="preserve" overflow="hidden"><g transform="translate(976 -499)"><g><rect x="-850.5" y="806.5" width="167" height="487" stroke="#000000" stroke-width="4.58333" stroke-linecap="butt" stroke-linejoin="miter" stroke-miterlimit="8" stroke-opacity="1" fill="#000000" fill-opacity="1"/><path d="M-851.74 809.456C-836.409 809.456-823.981 744.324-823.981 663.978-823.981 583.633-836.409 518.5-851.74 518.5L-682.26 518.5C-666.929 518.5-654.5 583.633-654.5 663.978-654.5 744.324-666.929 809.456-682.26 809.456L-851.74 809.456Z" fill="#000000" fill-rule="evenodd" fill-opacity="1"/><path d="M-851.74 809.456C-867.072 809.456-879.5 744.324-879.5 663.978-879.5 583.633-867.072 518.5-851.74 518.5-836.409 518.5-823.981 583.633-823.981 663.978-823.981 744.324-836.409 809.456-851.74 809.456Z" fill="#666666" fill-rule="evenodd" fill-opacity="1"/><path d="M-851.74 809.456C-836.409 809.456-823.981 744.324-823.981 663.978-823.981 583.633-836.409 518.5-851.74 518.5L-682.26 518.5C-666.929 518.5-654.5 583.633-654.5 663.978-654.5 744.324-666.929 809.456-682.26 809.456L-851.74 809.456Z" stroke="#000000" stroke-width="9.16667" stroke-linecap="butt" stroke-linejoin="round" stroke-miterlimit="10" stroke-opacity="1" fill="none" fill-rule="evenodd"/><path d="M-851.74 809.456C-867.072 809.456-879.5 744.324-879.5 663.978-879.5 583.633-867.072 518.5-851.74 518.5-836.409 518.5-823.981 583.633-823.981 663.978-823.981 744.324-836.409 809.456-851.74 809.456Z" stroke="#000000" stroke-width="9.16667" stroke-linecap="butt" stroke-linejoin="round" stroke-miterlimit="10" stroke-opacity="1" fill="none" fill-rule="evenodd"/><path d="M-851.74 518.5C-851.74 579.116-847.114 785.21-851.74 809.456-856.367 833.703-879.5 744.324-879.5 663.978-879.5 583.633-867.072 518.5-851.74 518.5L-682.26 518.5C-666.929 518.5-654.5 583.633-654.5 663.978-654.5 744.324-666.929 809.456-682.26 809.456L-851.74 809.456" stroke="#000000" stroke-width="9.16667" stroke-linecap="butt" stroke-linejoin="round" stroke-miterlimit="10" stroke-opacity="1" fill="none" fill-rule="evenodd"/><path d="M-683.007 522.5C-698.28 522.5-710.661 587.642-710.661 668-710.661 748.357-698.28 813.5-683.007 813.5L-851.845 813.5C-867.119 813.5-879.5 748.357-879.5 668-879.5 587.642-867.119 522.5-851.845 522.5L-683.007 522.5Z" fill="#000000" fill-rule="evenodd" fill-opacity="1"/><path d="M-683.007 522.5C-678.397 546.75-678.397 789.25-683.007 813.5L-683.007 522.5Z" fill="#666666" fill-rule="evenodd" fill-opacity="1"/><path d="M-683.007 522.5C-698.28 522.5-710.661 587.642-710.661 668-710.661 748.357-698.28 813.5-683.007 813.5L-851.845 813.5C-867.119 813.5-879.5 748.357-879.5 668-879.5 587.642-867.119 522.5-851.845 522.5L-683.007 522.5Z" stroke="#000000" stroke-width="9.16667" stroke-linecap="butt" stroke-linejoin="round" stroke-miterlimit="10" stroke-opacity="1" fill="none" fill-rule="evenodd"/><path d="M-683.007 522.5C-678.397 546.75-678.397 789.25-683.007 813.5L-683.007 522.5Z" stroke="#000000" stroke-width="9.16667" stroke-linecap="butt" stroke-linejoin="round" stroke-miterlimit="10" stroke-opacity="1" fill="none" fill-rule="evenodd"/><path d="M-683.007 813.5-683.007 522.5C-683.007 522.5-654.867 765-683.007 813.5L-851.845 813.5C-867.119 813.5-879.5 748.357-879.5 668-879.5 587.642-867.119 522.5-851.845 522.5L-683.007 522.5" stroke="#000000" stroke-width="9.16667" stroke-linecap="butt" stroke-linejoin="round" stroke-miterlimit="10" stroke-opacity="1" fill="none" fill-rule="evenodd"/><rect x="-960" y="517" width="377" height="16.0002" stroke="#000000" stroke-width="27.5" stroke-linecap="butt" stroke-linejoin="miter" stroke-miterlimit="8" stroke-opacity="1" fill="none"/></g></g></svg>