<svg width="779" height="774" xmlns="http://www.w3.org/2000/svg" xmlns:xlink="http://www.w3.org/1999/xlink" xml:space="preserve" overflow="hidden"><g transform="translate(-1535 -568)"><g><rect x="1980" y="1006" width="260" height="260" stroke="#000000" stroke-width="27.5" stroke-linecap="butt" stroke-linejoin="miter" stroke-miterlimit="8" stroke-opacity="1" fill="none"/><path d="M1989.5 1014.5 2232.29 1257.29" stroke="#000000" stroke-width="6.875" stroke-linecap="butt" stroke-linejoin="miter" stroke-miterlimit="8" stroke-opacity="1" fill="none" fill-rule="evenodd"/><rect x="1921" y="947" width="378" height="378" stroke="#000000" stroke-width="27.5" stroke-linecap="butt" stroke-linejoin="miter" stroke-miterlimit="8" stroke-opacity="1" fill="none"/><rect x="1840.5" y="1168.5" width="151" height="62.0002" stroke="#000000" stroke-width="4.58333" stroke-linecap="butt" stroke-linejoin="miter" stroke-miterlimit="8" stroke-opacity="1" fill="#000000" fill-opacity="1"/><rect x="2158.5" y="863.5" width="62.0002" height="151" stroke="#000000" stroke-width="4.58333" stroke-linecap="butt" stroke-linejoin="miter" stroke-miterlimit="8" stroke-opacity="1" fill="#000000" fill-opacity="1"/><path d="M1851 1195.29C1786.4 1199.97 1721.8 1204.64 1682.63 1195.29 1643.46 1185.93 1627.68 1161.96 1615.98 1139.15 1604.29 1116.35 1602.54 1078.34 1612.48 1058.46 1622.42 1038.58 1650.48 1025.13 1675.62 1019.87 1700.75 1014.6 1741.09 1012.85 1763.31 1026.88 1785.52 1040.92 1808.32 1071.91 1808.91 1104.07 1809.49 1136.23 1794.29 1190.03 1766.82 1219.85 1739.34 1249.67 1691.69 1266.33 1644.05 1283" stroke="#000000" stroke-width="10.3125" stroke-linecap="butt" stroke-linejoin="miter" stroke-miterlimit="8" stroke-opacity="1" fill="none" fill-rule="evenodd"/><path d="M2190.33 881C2187.32 816.073 2178.38 740.181 2190.33 711.78 2202.28 683.379 2250.34 696.104 2262.03 710.596 2273.72 725.087 2268.98 778.846 2260.45 798.73 2251.93 818.614 2225.2 830.288 2210.88 829.898 2196.57 829.508 2193.71 824.006 2174.56 796.39 2155.41 768.774 2144.7 720.887 2134 673" stroke="#000000" stroke-width="10.3125" stroke-linecap="butt" stroke-linejoin="miter" stroke-miterlimit="8" stroke-opacity="1" fill="none" fill-rule="evenodd"/></g></g></svg>