<svg xmlns="http://www.w3.org/2000/svg" viewBox="0 0 100 100" fill="none" stroke="#00bcd4" stroke-width="1.5">
  <rect x="10" y="15" width="80" height="65" rx="3" fill="#e0f7fa" stroke="#00bcd4"/>
  <g fill="#b2ebf2" stroke="#00bcd4" stroke-width="0.5">
    <circle cx="22" cy="28" r="4"/><circle cx="34" cy="28" r="4"/><circle cx="46" cy="28" r="4"/>
    <circle cx="58" cy="28" r="4"/><circle cx="70" cy="28" r="4"/><circle cx="82" cy="28" r="4"/>
    <circle cx="22" cy="40" r="4"/><circle cx="34" cy="40" r="4"/><circle cx="46" cy="40" r="4"/>
    <circle cx="58" cy="40" r="4"/><circle cx="70" cy="40" r="4"/><circle cx="82" cy="40" r="4"/>
    <circle cx="22" cy="52" r="4"/><circle cx="34" cy="52" r="4"/><circle cx="46" cy="52" r="4"/>
    <circle cx="58" cy="52" r="4"/><circle cx="70" cy="52" r="4"/><circle cx="82" cy="52" r="4"/>
    <circle cx="22" cy="64" r="4"/><circle cx="34" cy="64" r="4"/><circle cx="46" cy="64" r="4"/>
    <circle cx="58" cy="64" r="4"/><circle cx="70" cy="64" r="4"/><circle cx="82" cy="64" r="4"/>
  </g>
  <text x="50" y="92" text-anchor="middle" font-size="6" fill="#333">WELLPLATE</text>
</svg>
