<svg width="775" height="413" xmlns="http://www.w3.org/2000/svg" xmlns:xlink="http://www.w3.org/1999/xlink" xml:space="preserve" overflow="hidden"><g transform="translate(-2708 -1718)"><g><rect x="0" y="0" width="191" height="191" stroke="#000000" stroke-width="4.58333" stroke-linecap="butt" stroke-linejoin="miter" stroke-miterlimit="8" stroke-opacity="1" fill="#000000" fill-opacity="1" transform="matrix(1.83697e-16 1 1 -1.83697e-16 3115.5 1829.5)"/><path d="M0 0 0.000360892 188.978" stroke="#FFFFFF" stroke-width="13.75" stroke-linecap="butt" stroke-linejoin="miter" stroke-miterlimit="8" stroke-opacity="1" fill="none" fill-rule="evenodd" transform="matrix(1.83697e-16 1 1 -1.83697e-16 3122 1859)"/><path d="M0 0 0.000360892 188.978" stroke="#FFFFFF" stroke-width="13.75" stroke-linecap="butt" stroke-linejoin="miter" stroke-miterlimit="8" stroke-opacity="1" fill="none" fill-rule="evenodd" transform="matrix(1.83697e-16 1 1 -1.83697e-16 3122 1885)"/><path d="M0 0 0.000360892 188.978" stroke="#FFFFFF" stroke-width="13.75" stroke-linecap="butt" stroke-linejoin="miter" stroke-miterlimit="8" stroke-opacity="1" fill="none" fill-rule="evenodd" transform="matrix(1.83697e-16 1 1 -1.83697e-16 3122 1938)"/><path d="M0 0 0.000360892 188.978" stroke="#FFFFFF" stroke-width="13.75" stroke-linecap="butt" stroke-linejoin="miter" stroke-miterlimit="8" stroke-opacity="1" fill="none" fill-rule="evenodd" transform="matrix(1.83697e-16 1 1 -1.83697e-16 3122 1990)"/><path d="M0 0 0.000360892 188.978" stroke="#FFFFFF" stroke-width="13.75" stroke-linecap="butt" stroke-linejoin="miter" stroke-miterlimit="8" stroke-opacity="1" fill="none" fill-rule="evenodd" transform="matrix(1.83697e-16 1 1 -1.83697e-16 3122 1964)"/><path d="M0 0 0.000360892 188.978" stroke="#FFFFFF" stroke-width="13.75" stroke-linecap="butt" stroke-linejoin="miter" stroke-miterlimit="8" stroke-opacity="1" fill="none" fill-rule="evenodd" transform="matrix(1.83697e-16 1 1 -1.83697e-16 3122 1911)"/><rect x="0" y="0" width="377" height="378" stroke="#000000" stroke-width="27.5" stroke-linecap="butt" stroke-linejoin="miter" stroke-miterlimit="8" stroke-opacity="1" fill="none" transform="matrix(1.83697e-16 1 1 -1.83697e-16 2724 1736)"/><path d="M0 0 0.000360892 291.132" stroke="#000000" stroke-width="27.5" stroke-linecap="butt" stroke-linejoin="miter" stroke-miterlimit="8" stroke-opacity="1" fill="none" fill-rule="evenodd" transform="matrix(-1 0 0 1 3059 1779)"/><path d="M0 20.5001C-5.21983e-15 9.17822 9.17814-2.60994e-15 20.5-2.60994e-15 31.8218-5.21988e-15 40.9999 9.17822 40.9999 20.5001 40.9999 31.822 31.8218 41.0003 20.5 41.0003 9.17814 41.0003-1.04397e-14 31.822 0 20.5001Z" stroke="#44546A" stroke-width="3.4375" stroke-linecap="butt" stroke-linejoin="round" stroke-miterlimit="10" stroke-opacity="1" fill="#000000" fill-rule="evenodd" fill-opacity="1" transform="matrix(1 -1.22465e-16 -1.22465e-16 -1 3018.5 1945.5)"/><path d="M2784.5 1815.5 3020.5 1925.4 2784.5 2048.5Z" stroke="#FFFFFF" stroke-width="3.4375" stroke-linecap="butt" stroke-linejoin="round" stroke-miterlimit="10" stroke-opacity="1" fill="#FF0000" fill-rule="evenodd" fill-opacity="1"/></g></g></svg>